<?xml version="1.0" encoding="UTF-8"?>
<!-- Generator: Adobe Illustrator 23.0.1, SVG Export Plug-In . SVG Version: 6.00 Build 0)  -->
<svg width="436.34" height="143.48" version="1.1" viewBox="0 0 436.34 143.48" xml:space="preserve" xmlns="http://www.w3.org/2000/svg" xmlns:cc="http://creativecommons.org/ns#" xmlns:dc="http://purl.org/dc/elements/1.1/" xmlns:rdf="http://www.w3.org/1999/02/22-rdf-syntax-ns#"><metadata><rdf:RDF><cc:Work rdf:about=""><dc:format>image/svg+xml</dc:format><dc:type rdf:resource="http://purl.org/dc/dcmitype/StillImage"/><dc:title/></cc:Work></rdf:RDF></metadata>
<style type="text/css">
	.st0{fill:#ED1C24;}
	.st1{fill:#010101;}
</style>
<g transform="translate(-31.83,-23.04)">
	<path class="st0" d="m271.85 103.55c-0.81-0.32-1.62-0.65-2.43-0.97-5.44-2.15-11.06-3.65-16.81-4.62-3.72-0.63-7.46-1.09-11.2-1.58-2.35-0.31-4.19-1.73-6.19-2.79-5.42-2.87-10.99-5.37-16.77-7.4-3.96-1.39-7.98-2.51-12.12-3.12-7.17-1.06-14.35-1.15-21.58-0.48-8.05 0.75-15.59 3.27-23.05 6.2-2.23 0.88-4.52 1.63-6.79 2.39 0 0-1.99 1.15-8.17 1.2-0.14 0.02-0.3 0.01-0.45 0-0.99 0-1.59-0.03-1.9-0.08-3.26-0.13-6.53-0.27-9.79-0.43-1.49-0.08-1.79 0.15-1.78 1.66 0 0.83 0.03 1.67 0.03 2.5 0 0.11-0.03 0.22-0.04 0.33h-0.15c0-1.24 0.03-2.49 0-3.73-0.02-0.79 0.42-1.14 1.09-1.14 4.47-0.01 8.94 0 13.42 0.01 0 0 4.74-0.28 7.33-1.38 0.11-0.07 0.22-0.13 0.33-0.18 4.59-1.87 9.14-3.84 13.77-5.62 5.32-2.05 10.84-3.33 16.51-3.89 7.29-0.71 14.57-0.67 21.81 0.44 4.73 0.72 9.3 2.1 13.78 3.81 5.22 1.99 10.28 4.35 15.15 7.11 0.75 0.42 1.52 0.8 2.22 1.31 2.1 1.53 4.57 1.66 6.98 2.11 3.96 0.75 7.93 1.45 11.83 2.42 4.88 1.21 9.63 2.89 14.15 5.16 0.32 0.16 0.62 0.36 0.93 0.54-0.05 0.08-0.08 0.15-0.11 0.22m-37.31-5.34c-4.19 0.08-8.37 0.18-12.56 0.12-8.79-0.12-17.57-0.3-26.35-0.51-3.44-0.08-6.87-0.3-10.31-0.46v-0.35c15.89 0.03 31.78 0.05 47.67 0.08l0.03-0.45c-12.68-8.59-26.86-12.04-41.91-12.73h2.45c0.86 0 1.72-0.02 2.58 0.02 6.4 0.26 12.7 1.12 18.88 2.92 7.22 2.09 13.95 5.18 20.04 9.66 0.34 0.25 0.54 0.72 0.8 1.09-0.44 0.21-0.88 0.6-1.32 0.61m48.02-67.23c-4.96-5.29-12.16-7.93-21.61-7.93-7.26 0-13.86 1.54-19.79 4.61-4.08 2.12-7.85 4.79-11.3 8.01-2.18 2.04-5.62 1.57-7.22-0.96-1.68-2.65-3.79-4.94-6.35-6.87-4.24-3.2-9.74-4.8-16.52-4.8-5.81 0-10.98 1.32-15.52 3.97-2.13 1.24-4.13 2.58-6 4.02-1.59 1.22-3.7 0.07-3.88-1.73-0.24-2.35-2.37-4.05-4.7-4.05h-25.25c-2.15 0-4.04 1.47-4.6 3.59l-23.77 90.15c-0.81 3.07 1.47 6.09 4.6 6.09l9.64 0.08c-0.05-0.01-0.11-0.02-0.16-0.03 0.59-0.09 1.14 0 1.69 0.03 2.45 0.13 4.74-0.31 6.61-2.09 1.48-1.41 2.49-3.14 3.06-5.08 0.75-2.55 1.32-5.15 1.97-7.72 0.53-2.06 1.32-4.02 2.86-5.49 2.14-2.06 4.66-3.37 7.71-3.41 4.21-0.05 7.57 1.66 9.99 5.13 1.49 2.14 2.01 4.63 1.84 7.22-0.17 2.6-1.08 4.93-2.83 6.86-1.89 2.08-4.62 4.24-7.37 4.51-0.37 0.04-1.17 0.09-1.17 0.08 0 0 73.64 0.06 73.84 0.09 2.52 0.03 4.61-0.11 6.54-1.68 1.52-1.24 2.63-2.83 3.32-4.66 0.91-2.4 1.65-4.86 2.47-7.28 0.66-1.94 1.57-3.77 3.15-5.07 2.22-1.82 4.96-3.31 7.9-3.12 4.06 0.27 7.16 2.17 9.24 5.69 1.28 2.17 1.59 4.61 1.24 7.1s-1.4 4.67-3.23 6.39c-1.95 1.83-4.42 2.47-7.04 2.55-0.01 0-0.02 0.01-0.03 0.01l17.2-0.01c2.15 0 4.08-1.55 4.64-3.67l13.4-50.66c0.85-3.2 1.54-6.33 2.09-9.41 0.55-3.07 0.82-5.96 0.82-8.67-0.04-9.24-2.52-16.5-7.48-21.79" fill="#ed1c24"/>
	<g fill="#010101">
		<path class="st1" d="m95.62 86.55-0.24 0.89c-1.33 5.17-3.9 9.47-7.72 12.92-3.81 3.44-7.96 5.17-12.44 5.17-2.91 0-5.26-0.83-7.08-2.49s-2.72-3.9-2.72-6.73c0-4.55 1.63-8.09 4.9-10.61s7.63-3.78 13.07-3.78c2.42 0 4.69 0.22 6.81 0.65 1.24 0.25 2.45 0.54 3.63 0.85 1.36 0.35 2.17 1.76 1.79 3.13m39.06-38.22c-1.28-6.9-4.66-12.52-10.21-16.83-7.2-5.6-18.19-8.4-32.95-8.4-7.14 0-14.07 0.55-20.79 1.66-5.84 0.96-11.1 2.2-15.8 3.72-1.2 0.39-1.91 1.65-1.66 2.9l3.97 21.25c0.29 1.5 1.79 2.4 3.21 1.93 2.89-0.96 6.15-1.81 9.78-2.56 4.78-0.98 9.47-1.48 14.07-1.48 6.05 0 10.38 0.99 12.98 2.95 2.6 1.97 3.9 4.55 3.9 7.75 0 1.23-0.09 2.34-0.27 3.32-0.18 0.99-0.39 1.91-0.63 2.77l-0.36 1.29c-3.87-1.23-7.87-2.18-11.98-2.86-4.12-0.67-8.41-1.01-12.89-1.01-6.54 0-12.44 0.8-17.7 2.4-5.27 1.6-9.8 3.94-13.62 7.01-3.81 3.08-6.75 6.77-8.81 11.07-2.06 4.31-3.09 9.23-3.09 14.76 0 8.37 2.54 14.98 7.62 19.83 5.08 4.86 11.68 7.29 19.79 7.29 5.81 0 10.92-1.14 15.34-3.41 2.43-1.25 4.83-2.75 7.2-4.5 1.89-1.39 4.45 0.41 3.87 2.71-0.41 1.61 0.79 3.18 2.42 3.18h28.8c0.58 0 1.12-0.21 1.55-0.56-1.89-1.01-2.99-3.25-2.39-5.53z"/>
		<path class="st1" d="m307.07 123.84c-0.11-0.04-0.22-0.08-0.34-0.12-5.81-2.09-10.38-4.48-14.38-8.35-3.99-3.87-7.08-8.52-9.26-13.93-0.92-2.29-1.64-4.7-2.17-7.24-0.07-0.03-0.17-0.05-0.28-0.07l-7.23 27.34c-0.54 2.03-2.33 3.52-4.38 3.64v0.01l37.81 0.07c0.79 0.03 0.98-1.09 0.23-1.35"/>
		<path class="st1" d="m322.68 66.96h21.54c2.92 0 5.44-2.33 5.45-5.3v-0.05c0-3.44-1.09-6.43-3.27-8.95s-5.57-3.78-10.17-3.78-8.99 1.51-13.16 4.52c-1.78 1.29-3.37 2.85-4.77 4.68-2.74 3.61-0.12 8.88 4.38 8.88"/>
		<path class="st1" d="m467.16 31.66c2.23-2.46 0.51-6.44-2.78-6.44h-28.48c-1.12 0-2.19 0.51-2.9 1.38l-15.76 19.26c-1.87 2.28-5.47 1.64-6.46-1.16l-6-16.93c-0.54-1.52-1.96-2.54-3.56-2.54h-27.37c-2.71 0-4.54 2.82-3.47 5.36 0 0 6.14 13.98 7.53 18.2 1.63 4.98 2.45 10.18 2.45 15.59 0 3.45-0.33 6.92-1 10.43-0.4 2.09-0.89 4.12-1.48 6.1-0.7 2.35-2.83 3.95-5.24 3.95h-54.28c-4.1 0-6.77 4.44-4.84 8.13 0.76 1.44 1.7 2.73 2.84 3.87 2.96 2.95 7.41 4.43 13.35 4.43 3.51 0 6.93-0.61 10.26-1.85 2.16-0.8 4.41-1.93 6.76-3.41 2.29-1.44 5.29-0.97 7.03 1.12 0 0 2.22 2.67 4.22 5.07 1.86 2.23 1.88 5.5 0.04 7.75-2.98 3.65-5.81 6.42-14.67 13.38-0.76 0.6-0.35 1.84 0.61 1.84h36.95c1.11 0 2.17-0.5 2.88-1.36l13.92-17.35c1.88-2.26 5.46-1.6 6.44 1.19l5.24 14.96c0.54 1.53 1.96 2.55 3.56 2.55h27.39c2.71 0 4.54-2.81 3.47-5.35l-16.94-40.14c-0.58-1.39-0.31-2.99 0.69-4.11z"/>
			<path class="st1" d="m92.33 160.57c-0.82 0.84-1.74 1.25-2.74 1.25-0.73 0-1.36-0.2-1.88-0.57-0.54-0.39-0.94-0.86-1.19-1.47-0.27-0.59-0.4-1.23-0.4-1.94 0-0.8 0.15-1.61 0.42-2.35 0.29-0.77 0.65-1.41 1.13-1.98 0.92-1.1 2.28-1.82 3.7-1.82 1.24 0 2.2 0.49 2.87 1.43h0.02l0.34-1.24h3.4l-2.09 7.96c-0.13 0.51-0.21 1-0.23 1.45v0.33h-3.41v-0.31c0.04-0.29 0.06-0.55 0.1-0.75h-0.04zm0.48-2.52c0.46-0.49 0.69-1.06 0.69-1.74 0-0.45-0.13-0.84-0.44-1.12-0.31-0.29-0.69-0.43-1.17-0.43-0.63 0-1.17 0.24-1.63 0.73s-0.69 1.08-0.69 1.76c0 0.92 0.63 1.53 1.63 1.53 0.62-0.01 1.15-0.24 1.61-0.73z"/>
			<path class="st1" d="m105.1 160.55c-0.84 0.84-1.76 1.27-2.74 1.27-0.88 0-1.55-0.27-2.03-0.82-0.46-0.55-0.69-1.24-0.69-2.06 0-0.47 0.1-1.06 0.27-1.78l1.38-5.27h3.39l-1.34 5.14c-0.06 0.22-0.08 0.41-0.08 0.59 0 0.69 0.36 1.06 1.01 1.06 0.9 0 1.47-0.55 1.74-1.61l1.36-5.17h3.39l-2.07 7.96c-0.13 0.47-0.21 0.96-0.25 1.45v0.33h-3.41v-0.35c0.04-0.29 0.06-0.53 0.1-0.73h-0.03z"/>
			<path class="st1" d="m118.12 161.54c-0.5 0.18-1.11 0.26-1.84 0.26-0.86 0-1.57-0.24-2.11-0.73-0.54-0.47-0.8-1.14-0.8-2.02 0-0.39 0.06-0.78 0.17-1.22l0.79-3.06h-1.78l0.75-2.88h1.88l0.82-3.16h3.31l-0.82 3.16h2.2l-0.75 2.88h-2.2l-0.77 2.94c-0.06 0.14-0.06 0.27-0.06 0.39 0 0.53 0.34 0.78 1.03 0.78 0.29 0 0.57-0.02 0.88-0.1z"/>
			<path class="st1" d="m123.01 160.57c-0.84-0.84-1.26-1.92-1.26-3.25 0-1.45 0.61-2.88 1.61-3.92 0.5-0.53 1.09-0.94 1.82-1.25 0.71-0.31 1.47-0.47 2.26-0.47 1.47 0 2.72 0.49 3.52 1.29 0.79 0.82 1.24 1.94 1.24 3.21 0 1.47-0.61 2.9-1.63 3.94-0.48 0.53-1.09 0.94-1.82 1.25-0.71 0.31-1.47 0.47-2.28 0.47-1.45 0.01-2.62-0.4-3.46-1.27zm5.22-2.5c0.42-0.47 0.63-1.04 0.63-1.71 0-0.96-0.65-1.61-1.61-1.61-0.63 0-1.15 0.24-1.57 0.73-0.44 0.47-0.65 1.04-0.65 1.69 0 0.92 0.57 1.61 1.61 1.61 0.64-0.01 1.15-0.24 1.59-0.71z"/>
			<path class="st1" d="m143.19 161.63h-3.39l1.34-5.16c0.06-0.24 0.08-0.43 0.08-0.59 0-0.65-0.33-1.02-0.96-1.02-0.88 0-1.46 0.61-1.7 1.57l-1.36 5.19h-3.39l2.55-9.74h3.37l-0.29 1.08h0.02c0.86-0.84 1.76-1.27 2.72-1.27 1.23 0 2.05 0.53 2.43 1.61 0.98-1.08 2.13-1.61 3.45-1.61 1.78 0 2.76 1.08 2.76 2.86 0 0.51-0.1 1.1-0.27 1.78l-1.4 5.29h-3.35l1.32-5.16c0.06-0.24 0.1-0.43 0.1-0.59 0-0.69-0.33-1.02-0.98-1.02-0.86 0-1.42 0.53-1.7 1.59z"/>
			<path class="st1" d="m154.42 160.57c-0.84-0.84-1.26-1.92-1.26-3.25 0-1.45 0.61-2.88 1.61-3.92 0.5-0.53 1.09-0.94 1.82-1.25 0.71-0.31 1.47-0.47 2.26-0.47 1.47 0 2.72 0.49 3.52 1.29 0.79 0.82 1.24 1.94 1.24 3.21 0 1.47-0.61 2.9-1.63 3.94-0.48 0.53-1.09 0.94-1.82 1.25-0.71 0.31-1.47 0.47-2.28 0.47-1.44 0.01-2.61-0.4-3.46-1.27zm5.23-2.5c0.42-0.47 0.63-1.04 0.63-1.71 0-0.96-0.65-1.61-1.61-1.61-0.63 0-1.15 0.24-1.57 0.73-0.44 0.47-0.65 1.04-0.65 1.69 0 0.92 0.57 1.61 1.61 1.61 0.64-0.01 1.15-0.24 1.59-0.71z"/>
			<path class="st1" d="m171.18 161.54c-0.5 0.18-1.11 0.26-1.84 0.26-0.86 0-1.57-0.24-2.11-0.73-0.54-0.47-0.8-1.14-0.8-2.02 0-0.39 0.06-0.78 0.17-1.22l0.79-3.06h-1.78l0.75-2.88h1.88l0.82-3.16h3.31l-0.82 3.16h2.2l-0.75 2.88h-2.2l-0.77 2.94c-0.06 0.14-0.06 0.27-0.06 0.39 0 0.53 0.34 0.78 1.03 0.78 0.29 0 0.57-0.02 0.88-0.1z"/>
			<path class="st1" d="m180.18 151.89-2.53 9.74h-3.43l2.55-9.74zm-2.3-1.82c-0.33-0.31-0.5-0.76-0.5-1.27 0-0.63 0.21-1.16 0.63-1.59s0.92-0.65 1.53-0.65c0.52 0 0.92 0.18 1.26 0.49 0.34 0.35 0.5 0.78 0.5 1.31 0 0.61-0.19 1.14-0.61 1.57-0.44 0.43-0.94 0.65-1.53 0.65-0.51 0-0.93-0.18-1.28-0.51z"/>
			<path class="st1" d="m186.55 157.52 3.39-5.63h3.64l-6.36 9.74h-3.37l-1.28-9.74h3.45z"/>
			<path class="st1" d="m196.82 157.63c0 0.47 0.19 0.82 0.56 1.1 0.36 0.27 0.75 0.41 1.17 0.41 0.79 0 1.53-0.31 1.9-0.98l2.64 1.22c-0.61 1.18-1.63 1.82-2.66 2.16-0.73 0.24-1.34 0.31-1.97 0.31-1.4 0-2.55-0.41-3.45-1.23-0.92-0.84-1.36-1.92-1.36-3.29 0-0.75 0.15-1.47 0.46-2.18 0.33-0.69 0.73-1.29 1.26-1.8 0.52-0.51 1.13-0.92 1.84-1.22 0.73-0.29 1.46-0.45 2.22-0.45 1.13 0 2.2 0.37 3.01 1.04 0.8 0.67 1.32 1.72 1.32 2.94 0 0.67-0.13 1.33-0.38 1.98h-6.56zm1.22-2.94c-0.4 0.26-0.71 0.59-0.86 1.02h3.37c0.04-0.1 0.08-0.2 0.08-0.29 0-0.72-0.56-1.1-1.34-1.1-0.42 0-0.85 0.12-1.25 0.37z"/>
			<path class="st1" d="m222.05 158.11c-0.29 0.76-0.67 1.41-1.15 1.96-0.96 1.08-2.28 1.76-3.64 1.76-1.28 0-2.24-0.49-2.91-1.51h-0.04l-1.59 6.12h-3.35l3.79-14.54h3.39l-0.27 1h0.04c0.82-0.78 1.74-1.2 2.7-1.2 0.88 0 1.69 0.33 2.36 0.94 0.65 0.61 1.09 1.71 1.09 3.02 0 0.86-0.13 1.66-0.42 2.45zm-3.69-0.08c0.46-0.49 0.69-1.08 0.69-1.76 0-0.92-0.65-1.53-1.61-1.53-0.63 0-1.17 0.26-1.65 0.75-0.46 0.49-0.69 1.08-0.69 1.74 0 0.45 0.15 0.82 0.46 1.1 0.31 0.29 0.71 0.43 1.19 0.43 0.61-0.01 1.15-0.24 1.61-0.73z"/>
			<path class="st1" d="m230.94 160.57c-0.82 0.84-1.74 1.25-2.74 1.25-0.73 0-1.36-0.2-1.88-0.57-0.54-0.39-0.94-0.86-1.19-1.47-0.27-0.59-0.4-1.23-0.4-1.94 0-0.8 0.15-1.61 0.42-2.35 0.29-0.77 0.65-1.41 1.13-1.98 0.92-1.1 2.28-1.82 3.7-1.82 1.24 0 2.2 0.49 2.87 1.43h0.02l0.34-1.24h3.39l-2.09 7.96c-0.13 0.51-0.21 1-0.23 1.45v0.33h-3.41v-0.31c0.04-0.29 0.06-0.55 0.1-0.75h-0.03zm0.48-2.52c0.46-0.49 0.69-1.06 0.69-1.74 0-0.45-0.13-0.84-0.44-1.12-0.31-0.29-0.69-0.43-1.17-0.43-0.63 0-1.17 0.24-1.63 0.73s-0.69 1.08-0.69 1.76c0 0.92 0.63 1.53 1.63 1.53 0.61-0.01 1.15-0.24 1.61-0.73z"/>
			<path class="st1" d="m245.85 155.3c-0.33-0.12-0.67-0.18-1.07-0.18-0.61 0-1.13 0.12-1.65 0.43-0.5 0.31-0.9 0.92-1.15 1.8l-1.11 4.27h-3.39l2.55-9.74h3.35l-0.33 1.22h0.04c0.77-0.88 1.68-1.33 2.78-1.33 0.34 0 0.63 0.06 0.86 0.18z"/>
			<path class="st1" d="m253.34 161.54c-0.5 0.18-1.11 0.26-1.84 0.26-0.86 0-1.57-0.24-2.11-0.73-0.54-0.47-0.8-1.14-0.8-2.02 0-0.39 0.06-0.78 0.17-1.22l0.79-3.06h-1.78l0.75-2.88h1.88l0.82-3.16h3.31l-0.82 3.16h2.2l-0.75 2.88h-2.2l-0.77 2.94c-0.06 0.14-0.06 0.27-0.06 0.39 0 0.53 0.34 0.78 1.03 0.78 0.29 0 0.57-0.02 0.88-0.1z"/>
			<path class="st1" d="m264.79 152.71c0.59 0.59 0.9 1.29 0.9 1.92v0.06l-2.83 0.33c0-0.31-0.11-0.55-0.33-0.71-0.21-0.16-0.44-0.24-0.69-0.24-0.57 0-0.86 0.37-0.86 0.65 0 0.24 0.19 0.43 0.56 0.55l0.94 0.31c0.79 0.26 1.49 0.63 2.01 1.25 0.31 0.41 0.52 1.02 0.52 1.72 0 0.82-0.4 1.63-1.09 2.25-0.71 0.61-1.86 1.02-3.2 1.02-1.24 0-2.28-0.31-2.87-0.74-0.29-0.22-0.54-0.47-0.73-0.75-0.4-0.57-0.54-1.06-0.54-1.53v-0.14l2.76-0.47c0 0.35 0.11 0.63 0.4 0.86 0.27 0.22 0.57 0.31 0.96 0.31 0.69 0 1.02-0.35 1.02-0.69 0-0.31-0.23-0.53-0.71-0.71l-0.67-0.22c-0.57-0.22-1-0.39-1.45-0.73-0.23-0.16-0.42-0.33-0.57-0.53-0.29-0.37-0.5-0.92-0.5-1.55 0-0.94 0.38-1.74 1.17-2.37 0.77-0.63 1.74-0.94 2.91-0.94 1.24 0.06 2.29 0.49 2.89 1.09z"/>
			<path class="st1" d="m281.81 161.63h-3.39l1.34-5.16c0.06-0.24 0.08-0.43 0.08-0.59 0-0.65-0.33-1.02-0.96-1.02-0.88 0-1.46 0.61-1.7 1.57l-1.36 5.19h-3.39l2.55-9.74h3.37l-0.29 1.08h0.02c0.86-0.84 1.76-1.27 2.72-1.27 1.23 0 2.05 0.53 2.43 1.61 0.98-1.08 2.13-1.61 3.45-1.61 1.78 0 2.76 1.08 2.76 2.86 0 0.51-0.1 1.1-0.27 1.78l-1.4 5.29h-3.35l1.32-5.16c0.06-0.24 0.1-0.43 0.1-0.59 0-0.69-0.33-1.02-0.98-1.02-0.86 0-1.42 0.53-1.7 1.59z"/>
			<path class="st1" d="m294.96 157.63c0 0.47 0.19 0.82 0.56 1.1 0.36 0.27 0.75 0.41 1.17 0.41 0.79 0 1.53-0.31 1.9-0.98l2.64 1.22c-0.61 1.18-1.63 1.82-2.66 2.16-0.73 0.24-1.34 0.31-1.97 0.31-1.4 0-2.55-0.41-3.45-1.23-0.92-0.84-1.36-1.92-1.36-3.29 0-0.75 0.15-1.47 0.46-2.18 0.33-0.69 0.73-1.29 1.26-1.8 0.52-0.51 1.13-0.92 1.84-1.22 0.73-0.29 1.46-0.45 2.22-0.45 1.13 0 2.2 0.37 3.01 1.04s1.32 1.72 1.32 2.94c0 0.67-0.13 1.33-0.38 1.98h-6.56zm1.23-2.94c-0.4 0.26-0.71 0.59-0.86 1.02h3.37c0.04-0.1 0.08-0.2 0.08-0.29 0-0.72-0.56-1.1-1.34-1.1-0.43 0-0.85 0.12-1.25 0.37z"/>
			<path class="st1" d="m310.13 161.14 0.19-0.76c-0.46 0.35-0.88 0.63-1.28 0.8-0.38 0.18-0.86 0.26-1.4 0.26-0.96 0-1.78-0.35-2.45-1.1-0.67-0.72-1.02-1.61-1.02-2.65 0-0.78 0.13-1.55 0.42-2.27 0.27-0.74 0.63-1.37 1.09-1.9s1-0.96 1.63-1.29c0.63-0.31 1.3-0.49 1.97-0.49 1.3 0 2.28 0.49 2.95 1.47h0.02l0.34-1.31h3.35l-2.41 9.29c-0.23 0.92-0.48 1.63-0.75 2.12-1.07 2.06-2.83 3.21-5.17 3.21-2.07 0-3.48-0.78-4.21-1.86-0.52-0.73-0.75-1.49-0.75-2.27l3.06-0.63c0 0.53 0.17 0.96 0.5 1.31 0.34 0.33 0.8 0.51 1.38 0.51 1.25-0.01 2.12-0.91 2.54-2.44zm0.59-3.25c0.44-0.47 0.67-1.02 0.67-1.67 0-0.45-0.15-0.8-0.44-1.08-0.29-0.27-0.65-0.41-1.11-0.41-0.61 0-1.13 0.24-1.57 0.71s-0.65 1.02-0.65 1.69c0 0.88 0.61 1.47 1.55 1.47 0.59 0 1.11-0.24 1.55-0.71z"/>
			<path class="st1" d="m323.7 160.57c-0.82 0.84-1.74 1.25-2.74 1.25-0.73 0-1.36-0.2-1.88-0.57-0.54-0.39-0.94-0.86-1.19-1.47-0.27-0.59-0.4-1.23-0.4-1.94 0-0.8 0.15-1.61 0.42-2.35 0.29-0.77 0.65-1.41 1.13-1.98 0.92-1.1 2.28-1.82 3.7-1.82 1.24 0 2.2 0.49 2.87 1.43h0.02l0.34-1.24h3.39l-2.09 7.96c-0.13 0.51-0.21 1-0.23 1.45v0.33h-3.41v-0.31c0.04-0.29 0.06-0.55 0.1-0.75h-0.03zm0.48-2.52c0.46-0.49 0.69-1.06 0.69-1.74 0-0.45-0.13-0.84-0.44-1.12-0.31-0.29-0.69-0.43-1.17-0.43-0.63 0-1.17 0.24-1.63 0.73s-0.69 1.08-0.69 1.76c0 0.92 0.63 1.53 1.63 1.53 0.62-0.01 1.15-0.24 1.61-0.73z"/>
			<path class="st1" d="m338.66 152.71c0.59 0.59 0.9 1.29 0.9 1.92v0.06l-2.83 0.33c0-0.31-0.11-0.55-0.33-0.71-0.21-0.16-0.44-0.24-0.69-0.24-0.57 0-0.86 0.37-0.86 0.65 0 0.24 0.19 0.43 0.56 0.55l0.94 0.31c0.79 0.26 1.49 0.63 2.01 1.25 0.31 0.41 0.52 1.02 0.52 1.72 0 0.82-0.4 1.63-1.09 2.25-0.71 0.61-1.86 1.02-3.2 1.02-1.24 0-2.28-0.31-2.87-0.74-0.29-0.22-0.54-0.47-0.73-0.75-0.4-0.57-0.54-1.06-0.54-1.53v-0.14l2.76-0.47c0 0.35 0.11 0.63 0.4 0.86 0.27 0.22 0.57 0.31 0.96 0.31 0.69 0 1.02-0.35 1.02-0.69 0-0.31-0.23-0.53-0.71-0.71l-0.67-0.22c-0.57-0.22-1-0.39-1.45-0.73-0.23-0.16-0.42-0.33-0.57-0.53-0.29-0.37-0.5-0.92-0.5-1.55 0-0.94 0.38-1.74 1.17-2.37 0.77-0.63 1.74-0.94 2.91-0.94 1.24 0.06 2.29 0.49 2.89 1.09z"/>
			<path class="st1" d="m346.72 161.54c-0.5 0.18-1.11 0.26-1.84 0.26-0.86 0-1.57-0.24-2.11-0.73-0.54-0.47-0.8-1.14-0.8-2.02 0-0.39 0.06-0.78 0.17-1.22l0.79-3.06h-1.78l0.75-2.88h1.88l0.82-3.16h3.31l-0.82 3.16h2.2l-0.75 2.88h-2.2l-0.77 2.94c-0.06 0.14-0.06 0.27-0.06 0.39 0 0.53 0.34 0.78 1.03 0.78 0.29 0 0.57-0.02 0.88-0.1z"/>
			<path class="st1" d="m351.6 160.57c-0.84-0.84-1.26-1.92-1.26-3.25 0-1.45 0.61-2.88 1.61-3.92 0.5-0.53 1.09-0.94 1.82-1.25 0.71-0.31 1.47-0.47 2.26-0.47 1.47 0 2.72 0.49 3.52 1.29 0.79 0.82 1.24 1.94 1.24 3.21 0 1.47-0.61 2.9-1.63 3.94-0.48 0.53-1.09 0.94-1.82 1.25-0.71 0.31-1.47 0.47-2.28 0.47-1.45 0.01-2.62-0.4-3.46-1.27zm5.23-2.5c0.42-0.47 0.63-1.04 0.63-1.71 0-0.96-0.65-1.61-1.61-1.61-0.63 0-1.15 0.24-1.57 0.73-0.44 0.47-0.65 1.04-0.65 1.69 0 0.92 0.57 1.61 1.61 1.61 0.63-0.01 1.15-0.24 1.59-0.71z"/>
			<path class="st1" d="m370.77 155.3c-0.33-0.12-0.67-0.18-1.07-0.18-0.61 0-1.13 0.12-1.65 0.43-0.5 0.31-0.9 0.92-1.15 1.8l-1.11 4.27h-3.39l2.55-9.74h3.35l-0.33 1.22h0.04c0.77-0.88 1.68-1.33 2.78-1.33 0.34 0 0.63 0.06 0.86 0.18z"/>
			<path class="st1" d="m375.71 157.63c0 0.47 0.19 0.82 0.56 1.1 0.36 0.27 0.75 0.41 1.17 0.41 0.79 0 1.53-0.31 1.9-0.98l2.64 1.22c-0.61 1.18-1.63 1.82-2.66 2.16-0.73 0.24-1.34 0.31-1.97 0.31-1.4 0-2.55-0.41-3.45-1.23-0.92-0.84-1.36-1.92-1.36-3.29 0-0.75 0.15-1.47 0.46-2.18 0.33-0.69 0.73-1.29 1.26-1.8 0.52-0.51 1.13-0.92 1.84-1.22 0.73-0.29 1.46-0.45 2.22-0.45 1.13 0 2.2 0.37 3.01 1.04s1.32 1.72 1.32 2.94c0 0.67-0.13 1.33-0.38 1.98h-6.56zm1.22-2.94c-0.4 0.26-0.71 0.59-0.86 1.02h3.37c0.04-0.1 0.08-0.2 0.08-0.29 0-0.72-0.56-1.1-1.34-1.1-0.43 0-0.85 0.12-1.25 0.37z"/>
	</g>
</g>
</svg>