<svg xmlns="http://www.w3.org/2000/svg" xmlns:xlink="http://www.w3.org/1999/xlink" width="99" height="99" viewBox="0 0 99 99"><defs><style>.a,.c{fill:none;}.b{clip-path:url(#a);}.c{stroke:#fff;stroke-linejoin:round;stroke-width:3px;}</style><clipPath id="a"><rect class="a" width="99" height="99"/></clipPath></defs><g class="b"><g transform="translate(1.5 1.5)"><path class="c" d="M59.435,11.435V5.174A4.173,4.173,0,0,0,55.261,1H5.174A4.173,4.173,0,0,0,1,5.174V92.826A4.173,4.173,0,0,0,5.174,97H55.261a4.173,4.173,0,0,0,4.174-4.174V86.565" transform="translate(-1 -1)"/><line class="c" x2="52.174" transform="translate(0 16.696)"/><line class="c" x2="12.522" transform="translate(22.957 8.348)"/><line class="c" x1="52.174" transform="translate(0 79.304)"/><line class="c" x1="12.522" transform="translate(22.957 87.652)"/></g><g transform="translate(9.848 28.63)"><rect class="c" width="8.348" height="8.348"/><rect class="c" width="8.348" height="8.348" transform="translate(16.696)"/><rect class="c" width="8.348" height="8.348" transform="translate(33.391)"/></g><g transform="translate(9.848 45.326)"><rect class="c" width="8.348" height="8.348"/><rect class="c" width="8.348" height="8.348" transform="translate(16.696)"/></g><g transform="translate(9.848 62.022)"><rect class="c" width="8.348" height="8.348"/><rect class="c" width="8.348" height="8.348" transform="translate(16.696)"/><rect class="c" width="8.348" height="8.348" transform="translate(33.391)"/></g><path class="c" d="M35.522,13.174V31.957L23,44.478H35.522V67.435A4.173,4.173,0,0,0,39.7,71.609H68.913a4.173,4.173,0,0,0,4.174-4.174V13.174A4.173,4.173,0,0,0,68.913,9H39.7A4.173,4.173,0,0,0,35.522,13.174Z" transform="translate(24.413 9.196)"/><path class="c" d="M34,22.348l4.174,4.174L50.7,14" transform="translate(36.37 14.63)"/><line class="c" x2="16.696" transform="translate(72.457 53.674)"/><line class="c" x2="20.87" transform="translate(68.283 62.022)"/><line class="c" x2="20.87" transform="translate(68.283 70.37)"/></g></svg>