<svg xmlns="http://www.w3.org/2000/svg" xmlns:xlink="http://www.w3.org/1999/xlink" width="132" height="132" viewBox="0 0 132 132"><defs><style>.a,.c{fill:none;}.b{clip-path:url(#a);}.c{stroke:#fff;stroke-linejoin:round;stroke-width:4px;}</style><clipPath id="a"><rect class="a" width="132" height="132"/></clipPath></defs><g class="b"><g transform="translate(2 35.391)"><path class="c" d="M14.913,13H6.565A5.564,5.564,0,0,0,1,18.565V85.348a5.564,5.564,0,0,0,5.565,5.565H81.7" transform="translate(-1 -13)"/><g transform="translate(27.826 77.913)"><line class="c" x2="50.087" transform="translate(0 16.696)"/><line class="c" y2="16.696" transform="translate(8.348)"/><line class="c" y2="16.696" transform="translate(41.739)"/></g></g><rect class="c" width="38.957" height="55.652" rx="7" transform="translate(91.043 74.348)"/><path class="c" d="M95.261,92.826V65a5.564,5.564,0,0,1,5.565-5.565h8.348a5.564,5.564,0,0,0,5.565-5.565h0a5.564,5.564,0,0,0-5.565-5.565h-8.348a5.564,5.564,0,0,1-5.565-5.565h0a5.564,5.564,0,0,1,5.565-5.565h8.348a5.564,5.564,0,0,0,5.565-5.565h0a5.564,5.564,0,0,0-5.565-5.565h-8.348a5.564,5.564,0,0,1-5.565-5.565V6.565A5.564,5.564,0,0,0,89.7,1H14.565A5.564,5.564,0,0,0,9,6.565V76.13A5.564,5.564,0,0,0,14.565,81.7h52.87" transform="translate(15.261 1)"/><line class="c" x2="22.261" transform="translate(99.391 93.826)"/><line class="c" x2="86.261" transform="translate(24.261 15.913)"/><rect class="c" width="25.043" height="22.261" transform="translate(35.391 27.043)"/><line class="c" x2="22.261" transform="translate(79.913 27.043)"/><line class="c" x2="33.391" transform="translate(68.783 38.174)"/><line class="c" x2="33.391" transform="translate(68.783 49.304)"/><line class="c" x2="58.435" transform="translate(43.739 60.435)"/><line class="c" x2="50.087" transform="translate(32.609 71.565)"/><g transform="translate(13.13 91.043)"><path class="c" d="M16.13,44.13H10.565A5.564,5.564,0,0,1,5,38.565V33" transform="translate(-5 -33)"/><line class="c" x2="5.565" transform="translate(16.696 11.13)"/></g></g></svg>