<svg xmlns="http://www.w3.org/2000/svg" xmlns:xlink="http://www.w3.org/1999/xlink" width="132" height="132" viewBox="0 0 132 132"><defs><style>.a,.c{fill:none;}.b{clip-path:url(#a);}.c{stroke:#fff;stroke-linejoin:round;stroke-width:4px;}</style><clipPath id="a"><rect class="a" width="132" height="132"/></clipPath></defs><g class="b"><g transform="translate(2 118.87)"><path class="c" d="M0,0H128a0,0,0,0,1,0,0V9.13a2,2,0,0,1-2,2H2a2,2,0,0,1-2-2V0A0,0,0,0,1,0,0Z"/><line class="c" x2="27.826" transform="translate(50.087 2.783)"/></g><path class="c" d="M26.261,15H9.565A5.564,5.564,0,0,0,4,20.565V92.913H115.3V20.565A5.564,5.564,0,0,0,109.739,15H98.609" transform="translate(6.348 25.957)"/><g transform="translate(43.739 40.957)"><path class="c" d="M82.783,53.957V42.826H73.792a24.884,24.884,0,0,0-3.217-7.75l6.361-6.361-7.869-7.872-6.361,6.364a24.884,24.884,0,0,0-7.75-3.217V15H43.826v8.991a24.884,24.884,0,0,0-7.75,3.217l-6.361-6.364-7.869,7.872,6.361,6.361a24.884,24.884,0,0,0-3.217,7.75H16v11.13h8.991a24.884,24.884,0,0,0,3.217,7.75l-6.361,6.361,7.869,7.869,6.361-6.361a24.884,24.884,0,0,0,7.75,3.217v8.991h11.13V72.792a24.884,24.884,0,0,0,7.75-3.217l6.361,6.361,7.869-7.869-6.361-6.361a24.884,24.884,0,0,0,3.217-7.75Z" transform="translate(-16 -15)"/><circle class="c" cx="8.348" cy="8.348" r="8.348" transform="translate(25.043 25.043)"/></g><g transform="translate(2 2)"><path class="c" d="M56.652,1H6.565A5.564,5.564,0,0,0,1,6.565v16.7a5.564,5.564,0,0,0,5.565,5.565H31.609L45.522,42.739V28.826h11.13a5.564,5.564,0,0,0,5.565-5.565V6.565A5.564,5.564,0,0,0,56.652,1Z" transform="translate(-1 -1)"/><line class="c" x2="5.565" transform="translate(8.348 13.913)"/><line class="c" x2="33.391" transform="translate(19.478 13.913)"/></g><path class="c" d="M27,6.565v16.7a5.564,5.564,0,0,0,5.565,5.565H46.478v8.348l8.348-8.348H77.087a5.564,5.564,0,0,0,5.565-5.565V6.565A5.564,5.564,0,0,0,77.087,1H32.565A5.564,5.564,0,0,0,27,6.565Z" transform="translate(47.348 1)"/><line class="c" x2="38.957" transform="translate(82.696 15.913)"/><path class="c" d="M19.13,46.13H13.565A5.564,5.564,0,0,1,8,40.565V35" transform="translate(13.478 61.609)"/><line class="c" y1="5.565" transform="translate(21.478 85.478)"/></g></svg>