<svg xmlns="http://www.w3.org/2000/svg" xmlns:xlink="http://www.w3.org/1999/xlink" width="149.442" height="152" viewBox="0 0 149.442 152"><defs><style>.a{fill:none;}.b{clip-path:url(#a);}.c{fill:#aab1ba;}.d{fill:#fff;}.e{fill:#5cdb94;}.f{fill:#1c1d21;}</style><clipPath id="a"><rect class="a" width="149.442" height="152"/></clipPath></defs><g class="b"><g transform="translate(1.518 1.518)"><path class="c" d="M134.127,468.7V450.014A11.111,11.111,0,0,0,123.014,438.9h0A11.111,11.111,0,0,0,111.9,450.014V468.7" transform="translate(-111.901 -438.901)"/></g><g transform="translate(12.631 1.518)"><path class="d" d="M231.973,438.9h0a11.115,11.115,0,0,1,11.113,11.113V587.865H125.056V450.014A11.111,11.111,0,0,0,113.943,438.9h118.03Z" transform="translate(-113.943 -438.901)"/></g><g transform="translate(135.619 40.931)"><path class="e" d="M148.847,452.3v74.025L142.7,544.7l-6.155-18.378V452.3a6.153,6.153,0,0,1,6.155-6.155h0A6.151,6.151,0,0,1,148.847,452.3Z" transform="translate(-136.542 -446.143)"/></g><g transform="translate(135.622 121.112)"><path class="c" d="M148.844,460.876l-6.151,18.377-6.151-18.377Z" transform="translate(-136.542 -460.876)"/></g><path class="f" d="M254.915,469.936v2.634a1.521,1.521,0,1,1-3.042,0v-2.634a1.521,1.521,0,0,1,3.042,0Zm-3.042-18.683v11.641a1.521,1.521,0,0,0,3.042,0V451.253a12.644,12.644,0,0,0-12.631-12.631H124.253a12.644,12.644,0,0,0-12.631,12.631v18.683a1.521,1.521,0,1,0,3.042,0V451.253a9.592,9.592,0,1,1,19.184,0V589.1a1.518,1.518,0,0,0,3.037,0V451.253q0-.343-.016-.686l-.016-.223c-.011-.152-.022-.3-.038-.452l-.033-.261c-.022-.136-.038-.267-.06-.4l-.049-.272c-.022-.125-.049-.256-.076-.381l-.06-.278c-.033-.12-.065-.245-.1-.365l-.076-.272q-.049-.18-.114-.359l-.087-.267c-.043-.12-.087-.239-.136-.354l-.1-.25c-.049-.125-.1-.245-.158-.365l-.1-.228-.2-.392-.1-.185c-.1-.185-.207-.376-.316-.555l-.027-.038c-.1-.169-.212-.337-.321-.5l-.131-.18-.245-.343-.158-.2c-.082-.1-.158-.2-.239-.3l-.18-.2-.245-.277-.2-.2c-.082-.087-.169-.169-.256-.256l-.2-.19c-.087-.087-.18-.163-.267-.245l-.125-.114H242.283A9.6,9.6,0,0,1,251.873,451.253Zm9.175,108.686-.011.065a1.483,1.483,0,0,1-.049.212L254.833,578.6a1.519,1.519,0,0,1-2.879,0l-6.15-18.378a1.01,1.01,0,0,1-.054-.212l-.011-.065-.011-.169-.006-.038V485.708a7.671,7.671,0,1,1,15.342,0v74.063Zm-12.283-74.231v72.506h9.263V485.708a4.631,4.631,0,1,0-9.263,0Zm4.631,87.614,4.038-12.065h-8.082ZM150.245,462.285h19.913a1.518,1.518,0,1,0,0-3.037H150.245a1.518,1.518,0,1,0,0,3.037Zm0,7.3h19.913a1.518,1.518,0,1,0,0-3.037H150.245a1.518,1.518,0,1,0,0,3.037Zm83.8,11.554H160.2a1.518,1.518,0,1,0,0,3.037h73.845a1.518,1.518,0,0,0,0-3.037Zm0,7.293h-83.8a1.521,1.521,0,0,0,0,3.042h83.8a1.521,1.521,0,0,0,0-3.042Zm0,7.3h-83.8a1.521,1.521,0,0,0,0,3.042h83.8a1.521,1.521,0,0,0,0-3.042Zm0,7.3h-83.8a1.518,1.518,0,0,0,0,3.037h83.8a1.518,1.518,0,0,0,0-3.037Zm-83.8,10.335h69.007a1.521,1.521,0,1,0,0-3.042H150.245a1.521,1.521,0,0,0,0,3.042Zm83.8,11.554H160.2a1.518,1.518,0,1,0,0,3.037h73.845a1.518,1.518,0,0,0,0-3.037Zm0,7.293h-83.8a1.521,1.521,0,0,0,0,3.042h83.8a1.521,1.521,0,0,0,0-3.042Zm0,7.3h-83.8a1.521,1.521,0,0,0,0,3.042h83.8a1.521,1.521,0,0,0,0-3.042Zm0,7.3h-83.8a1.518,1.518,0,1,0,0,3.037h83.8a1.518,1.518,0,1,0,0-3.037Zm0,24.979h-14.8a1.518,1.518,0,0,0,0,3.037h14.8a1.518,1.518,0,0,0,0-3.037Zm-13.273-16.163a1.521,1.521,0,0,0-1.524-1.524H150.245a1.521,1.521,0,0,0,0,3.042h69.007A1.52,1.52,0,0,0,220.776,555.618Z" transform="translate(-111.622 -438.622)"/></g></svg>