<svg xmlns="http://www.w3.org/2000/svg" xmlns:xlink="http://www.w3.org/1999/xlink" width="132.2" height="132.2" viewBox="0 0 132.2 132.2"><defs><style>.a,.c{fill:none;}.b{clip-path:url(#a);}.c{stroke:#fff;stroke-linejoin:round;stroke-width:4px;}</style><clipPath id="a"><rect class="a" width="132.2" height="132.2"/></clipPath></defs><g class="b"><g transform="translate(2 2)"><path class="c" d="M79.035,17.722,62.313,1H6.574A5.572,5.572,0,0,0,1,6.574V90.183a5.572,5.572,0,0,0,5.574,5.574H26.083" transform="translate(-1 -1)"/><path class="c" d="M39.722,79.035V73.461A5.572,5.572,0,0,1,45.3,67.887h8.361a5.572,5.572,0,0,0,5.574-5.574h0a5.572,5.572,0,0,0-5.574-5.574H45.3a5.572,5.572,0,0,1-5.574-5.574h0A5.572,5.572,0,0,1,45.3,45.591h8.361a5.572,5.572,0,0,0,5.574-5.574h0a5.572,5.572,0,0,0-5.574-5.574H45.3a5.572,5.572,0,0,1-5.574-5.574V17.722H23V1" transform="translate(38.313 -1)"/><g transform="translate(13.935 39.017)"><path class="c" d="M17.148,15,6,26.148,17.148,37.3" transform="translate(-6 -15)"/><path class="c" d="M20,37.3,31.148,26.148,20,15" transform="translate(19.017 -15)"/><line class="c" x1="11.148" y2="22.296" transform="translate(19.509)"/></g></g><rect class="c" width="94.757" height="50.165" rx="2" transform="translate(35.443 80.035)"/><line class="c" x2="11.148" transform="translate(43.804 93.969)"/><line class="c" x2="11.148" transform="translate(60.526 93.969)"/><line class="c" x2="11.148" transform="translate(77.248 93.969)"/><line class="c" x2="11.148" transform="translate(93.97 93.969)"/><line class="c" x2="11.148" transform="translate(110.691 93.969)"/><line class="c" x2="11.148" transform="translate(43.804 105.117)"/><line class="c" x2="11.148" transform="translate(60.526 105.117)"/><line class="c" x2="11.148" transform="translate(77.248 105.117)"/><line class="c" x2="11.148" transform="translate(93.97 105.117)"/><line class="c" x2="11.148" transform="translate(110.691 105.117)"/><line class="c" x2="11.148" transform="translate(43.804 116.265)"/><line class="c" x2="44.591" transform="translate(60.526 116.265)"/><line class="c" x2="11.148" transform="translate(110.691 116.265)"/></g></svg>