<svg xmlns="http://www.w3.org/2000/svg" xmlns:xlink="http://www.w3.org/1999/xlink" width="132" height="132" viewBox="0 0 132 132"><defs><style>.a,.c{fill:none;}.b{clip-path:url(#a);}.c{stroke:#edf5e0;stroke-linejoin:round;stroke-width:4px;}.d{fill:#edf5e0;}.e{fill:#389583;}.f{fill:#fff;}</style><clipPath id="a"><rect class="a" width="132" height="132"/></clipPath></defs><g class="b"><g transform="translate(89 -10)"><g transform="translate(-87 12)"><g transform="translate(0 33.391)"><path class="c" d="M13.174,76.87V96.348a5.564,5.564,0,0,1-5.565,5.565H-81.435A5.564,5.564,0,0,1-87,96.348V29.565A5.564,5.564,0,0,1-81.435,24h64" transform="translate(87 -24)"/><line class="c" x2="50.087" transform="translate(25.043 94.609)"/><line class="c" y2="13.913" transform="translate(33.391 80.696)"/><line class="c" y2="16.696" transform="translate(66.783 77.913)"/><line class="c" x2="100.174" transform="translate(0 61.217)"/></g><rect class="c" width="50.087" height="77.913" rx="2" transform="translate(77.913)"/><line class="c" x2="11.13" transform="translate(97.391 66.783)"/><rect class="c" width="22.261" height="22.261" transform="translate(11.13 47.304)"/><line class="c" x2="27.826" transform="translate(41.739 47.304)"/><line class="c" x2="27.826" transform="translate(41.739 58.435)"/><line class="c" x2="27.826" transform="translate(41.739 69.565)"/><line class="c" x2="61.217" transform="translate(8.348 80.696)"/></g><g transform="translate(2.965 41.145)"><path class="d" d="M-30.224,28.493h-6.5v-.949a5.074,5.074,0,0,0-5.07-5.07h-.292a5.074,5.074,0,0,0-5.07,5.07v.949h-6.5A1.007,1.007,0,0,0-54.669,29.5a1.009,1.009,0,0,0,1.007,1.01h1.9v9.747A2.543,2.543,0,0,0-49.218,42.8H-34.67a2.544,2.544,0,0,0,2.543-2.541V30.51h1.9a1.009,1.009,0,0,0,1.007-1.01A1.007,1.007,0,0,0-30.224,28.493Z" transform="translate(54.669 -22.474)"/><path class="e" d="M-51.246,26.253A3.059,3.059,0,0,1-48.191,23.2h.292a3.056,3.056,0,0,1,3.053,3.055V27.2h-6.4Z" transform="translate(60.771 -21.183)"/><path class="e" d="M-37.3,35.109a.525.525,0,0,1-.526.526H-52.373a.527.527,0,0,1-.526-.526V25.362h15.6Z" transform="translate(57.824 -17.326)"/></g><path class="f" d="M-50.042,27.4v2.513a1.009,1.009,0,0,1-1.007,1.01,1.009,1.009,0,0,1-1.007-1.01V27.4a1.007,1.007,0,0,1,1.007-1.007A1.007,1.007,0,0,1-50.042,27.4Z" transform="translate(62.29 25.659)"/><path class="f" d="M-48.441,27.4v2.513a1.012,1.012,0,0,1-1.01,1.01,1.009,1.009,0,0,1-1.007-1.01V27.4a1.007,1.007,0,0,1,1.007-1.007A1.009,1.009,0,0,1-48.441,27.4Z" transform="translate(65.14 25.659)"/><path class="f" d="M-47.849,26.394A1.007,1.007,0,0,1-46.842,27.4v2.513a1.009,1.009,0,0,1-1.007,1.01,1.012,1.012,0,0,1-1.01-1.01V27.4A1.009,1.009,0,0,1-47.849,26.394Z" transform="translate(67.99 25.659)"/></g></g></svg>