<svg xmlns="http://www.w3.org/2000/svg" xmlns:xlink="http://www.w3.org/1999/xlink" width="808.753" height="536.323" viewBox="0 0 808.753 536.323"><defs><style>.a{fill:none;}.b{clip-path:url(#a);}.c{fill:#d8deed;}.d{fill:#05386b;}.e{fill:#5cdb94;}.f{fill:#389583;}.g{fill:#444;opacity:0.177;}.h{fill:#88502b;}.i{fill:#8c2a00;opacity:0.2;}.j{fill:#482d1f;}.k{fill:#474961;}.l{fill:#f2a98a;}.m{fill:#4a2301;}.n{fill:#db9e75;}.o{fill:#1f1c1b;}.p{fill:#fff;}.q{fill:#f2f6fb;}.r{fill:#e1e5f0;}.s{fill:#ffcb3d;}.t{fill:#ff5645;}.u{fill:#3abf7c;}</style><clipPath id="a"><rect class="a" width="808.753" height="536.323"/></clipPath></defs><g class="b" transform="translate(0)"><g transform="translate(-339.247 -426.676)"><g transform="translate(973.114 684.151)"><path class="c" d="M1538.022,715.159V572.21c0-1.274-22.037-2.336-48.535-2.336h-5.522c-26.444,0-48.535,1.062-48.535,2.336V715.266c0,1.274,22.037,2.336,48.535,2.336h5.522C1515.932,717.655,1538.022,716.54,1538.022,715.159Z" transform="translate(-1380.06 -569.874)"/><path class="c" d="M1332.418,984.255l.212.106a2.3,2.3,0,0,0,3.08-.744L1397.891,869.4a2.195,2.195,0,0,0-1.009-2.974l-.212-.106a2.3,2.3,0,0,0-3.08.743l-15.4,28.25q-15.054,27.719-30.161,55.385l-16.621,30.48A2.331,2.331,0,0,0,1332.418,984.255Z" transform="translate(-1331.158 -708.765)"/><path class="c" d="M1493.429,863.074h-145.71a2.4,2.4,0,0,0-2.389,2.336v.266a2.369,2.369,0,0,0,2.389,2.336h145.816a2.4,2.4,0,0,0,2.39-2.336v-.266A2.429,2.429,0,0,0,1493.429,863.074Z" transform="translate(-1337.805 -707.381)"/><path class="c" d="M1601.092,981.154l-16.621-30.48q-15.054-27.719-30.161-55.385l-15.4-28.25a2.25,2.25,0,0,0-3.08-.743l-.212.106a2.209,2.209,0,0,0-1.009,2.974L1596.791,983.6a2.249,2.249,0,0,0,3.08.743l.213-.106A2.33,2.33,0,0,0,1601.092,981.154Z" transform="translate(-1426.456 -708.744)"/></g><g transform="translate(935.875 596.534)"><g transform="translate(0 162.573)"><path class="d" d="M1416.7,1049.718h-53.46a2.729,2.729,0,0,0-1.026.2l4.725-27.942,37.613-4.646Zm-67.042.12a2.412,2.412,0,0,0-.755-.12h-84.378a2.408,2.408,0,0,0-.773.126,2.736,2.736,0,0,1-.342-.869v-.053a3.991,3.991,0,0,1,0-.8,5.371,5.371,0,0,1,.159-.9,13.009,13.009,0,0,1,3.77-5.522,2.222,2.222,0,0,1,.425-.319,62.949,62.949,0,0,1,7.222-3.876c4.885-2.23,15.718-6.8,18.957-8.443a57.031,57.031,0,0,0,16.036-12.213l.743-.372,37.171-.9s.159.531.159.584l1.859,32.551A2.617,2.617,0,0,1,1349.657,1049.838Z" transform="translate(-1262.135 -853.857)"/><path class="e" d="M1263.42,1079.874h84.431a2.39,2.39,0,0,1,0,4.779H1263.42a2.39,2.39,0,1,1,0-4.779Zm98.769,0h53.1a2.39,2.39,0,0,1,0,4.779h-53.1a2.39,2.39,0,1,1,0-4.779Z" transform="translate(-1261.03 -884.013)"/><path class="f" d="M1414.328,785.858q0,1.181,0,2.389c0,27.062-.956,65.8-1.275,78.663-.053,1.682.159,6.283-3.027,9.2a9.929,9.929,0,0,1-3.5,1.93c-9.4,3.117-22.568,3.166-37.012,1.978a38.58,38.58,0,0,1-4.567-1.237,8.136,8.136,0,0,1-5.735-7.025c-1.487-14.545-5.576-54.272-5.894-57.785-.425-4.453-.8-9.5-1.115-15.238l-1.043-16.64c-5.521-1.169-10.782-2.451-15.761-3.8,6.819,27.37,13.472,55.979,19.354,84.407a10.624,10.624,0,0,1-.637,6.9c-2.549,5.033-9.187,4.826-25.064,6.8-18.692,2.387-26.5,4.825-30.746-.208a8.943,8.943,0,0,1-2.071-4.1c-3.876-20.392-23.1-79.7-30.586-122.249,0-.1-.053-.156-.053-.26a25.521,25.521,0,0,1,.2-9.852,29.439,29.439,0,0,1,28.667-26.416l45.427-.948c19.86-.355,84.154-2.426,86.054-.607s2.678,17.058,2.891,23.538c0,2.379,0,4.809.053,7.137,0,11.39-1.965,21.817-5.257,29.866-2.283,5.568-5.151,9.973-8.39,12.807Q1414.785,785.509,1414.328,785.858Z" transform="translate(-1262.988 -711.03)"/><path class="g" d="M1414.8,785.928c.007-9.349.061-17.4.158-22.68.106-4.552.9-29.585-9.4-34.78a30.709,30.709,0,0,0-3.611-1.484,50.722,50.722,0,0,0-18.426-2.721c-6.213.247-15.559.644-23.258,6.877-10.674,8.707-10.408,22.313-10.3,24.539l1.655,26.4c-5.534-1.174-10.806-2.461-15.795-3.809-3.448-13.837-6.939-27.355-10.394-40.371-3.186-11.987-14.39-19.77-26.232-18.265l-13.222,1.712a23.434,23.434,0,0,0-19.567,17.9,29.439,29.439,0,0,1,28.612-25.916l45.427-.948c19.86-.355,84.154-2.426,86.054-.607s2.678,17.058,2.891,23.538c0,2.379,0,4.809.053,7.137,0,11.39-1.965,21.817-5.257,29.866-2.283,5.568-5.151,9.973-8.39,12.807Q1415.3,785.548,1414.8,785.928Z" transform="translate(-1263.552 -711.03)"/></g><g transform="translate(41.419)"><path class="d" d="M1373.07,578.088l-22.842-2.262c-2.336-.212-2.34-5.029-2.408-6.992.223-2.009,1.155-5.041,2.834-5.829-.94-1.634-1.1-4.532-.385-7.319.571-2.222,2.572-3.543,4.643-4.225,1.714-5.542,4.365-14.707,5.347-19.086,2.936-13.333,6.955-18.415,8.338-19.9a29.006,29.006,0,0,1,4.173-3.759,34.544,34.544,0,0,1,18.425-6.435.674.674,0,0,1,.317-.064l14.655-.719c1.97-.226,3.835-.368,5.52-.495a80.523,80.523,0,0,1,15.617-.082l16.412.231a.673.673,0,0,1,.318.053A34.541,34.541,0,0,1,1462.673,507a28.963,28.963,0,0,1,4.3,3.611c1.434,1.434,5.629,6.372,9.027,19.594,1.135,4.343,4.1,13.409,6.011,18.888,2.094.609,4.14,1.859,4.788,4.06.813,2.76.753,5.662-.13,7.328,1.707.729,2.744,3.726,3.037,5.726,0,1.965.165,6.778-2.163,7.072l-20.629,2.773c1.462,11.454,1.5,21.017.416,27.333a1.841,1.841,0,0,1-.115.543,17.5,17.5,0,0,1-1.2,4.239l-.172.326c-2.926,4.13-26.044,2.662-31.493,2.826-8.949.272-19.275.326-32.01.055-3.958-.109-11.473.6-20.652-1.793a.2.2,0,0,1-.115-.055,12.189,12.189,0,0,1-2.466-1.086,11.331,11.331,0,0,1-2.008-1.413c-5.737-5.162-4.474-17.5-4.474-17.5Q1372.848,583.463,1373.07,578.088Z" transform="translate(-1343.152 -449.753)"/><path class="h" d="M1420.379,441.06l.576,16.916a.984.984,0,0,1-.478.9,18.668,18.668,0,0,1-5.788,2.336,20.311,20.311,0,0,1-10.3-.372,1.02,1.02,0,0,1-.743-.956l-.208-9.449c-3.015,1.124-2.844,1.012-3.124,1.106a20.143,20.143,0,0,1-6.744.637c-1.912-.159-3.93-1.752-5.735-4.461-2.443-3.611-4.62-9.24-5.788-15.984a17.554,17.554,0,0,1-.318-2.867l-.213-9.505A12.711,12.711,0,0,1,1383,413.2a9.178,9.178,0,0,1,1.381-2.124q.169-.217.344-.424c4.174-5.392,12.475-6.1,16.33-5.682.478.053,2.177.266,4.62.425,1.327.106,2.389.106,3.027.159,7.912.319,11.045-.637,15.028,1.487a11.939,11.939,0,0,1,3.929,3.186c4.2,5.257,3.186,12.054,2.921,14.072-.956,6.054-4.461,9.771-5.522,11.311A45.178,45.178,0,0,1,1420.379,441.06ZM1347.01,555.145l3.787-23.7,18.119,1.408-.2,16.213c6.926-.776,13.778-.865,17.239.633q.15.064.293.132c16.4-3.1,44.493-8.24,61.719-10.394l-1.735-6.126,35.672-4.795c1.613,17.556-.22,38.8-17.94,40.976q-30.676,3.77-101.571,0h-23.346C1338.716,562.666,1343.21,558.744,1347.01,555.145Z" transform="translate(-1339.03 -404.874)"/><path d="M1468.3,428.158c-2.489,0-4.863.122-7.223.254a7.362,7.362,0,0,0-1.168-5.7c-1.7-2.39-4.885-3.717-7.434-2.867a6.284,6.284,0,0,0-2.5,1.7,9.03,9.03,0,0,0-1.752,3.717l-.267,2.634c-4.266-4.419-9.7-10-13.758-14.27a23.184,23.184,0,0,1-10.825.357,10.065,10.065,0,0,1-1.741-.571c.035-.07.071-.141.107-.211a9.174,9.174,0,0,1,1.38-2.124q.169-.217.344-.424c4.174-5.392,12.475-6.1,16.33-5.682.478.053,2.177.266,4.62.425,1.328.106,2.39.106,3.027.159,7.912.319,11.045-.637,15.028,1.487a11.941,11.941,0,0,1,3.93,3.186c4.195,5.257,3.186,12.054,2.921,14.072A19.61,19.61,0,0,1,1468.3,428.158Zm-45.934-2.15a.7.7,0,0,1-.319-1.168,3.66,3.66,0,0,1,2.39-.85c2.177,0,4.514,1.434,2.071,2.071A8.306,8.306,0,0,1,1422.366,426.008Zm10.939.372a.668.668,0,0,1-.266-1.168,3.7,3.7,0,0,1,2.443-.85c2.177,0,4.514,1.487,2.071,2.071A8.715,8.715,0,0,1,1433.3,426.38Z" transform="translate(-1377.771 -404.874)"/><path class="i" d="M1353.978,667.055l3.83-23.833,18.119,1.408-.2,16.3c-9.435,1.058-19.006,3.394-20.323,4.741C1354.947,666.132,1354.468,666.591,1353.978,667.055Z" transform="translate(-1346.04 -516.656)"/><path class="j" d="M1428.751,450.591c-.053.9-.212,2.39-.744,2.921-.9.8-2.071-1.859-1.38-3.5.265-.69.637-.8,1.062-.743A1.317,1.317,0,0,1,1428.751,450.591Zm9.505-.159c.053.9.053,2.39-.478,3.027-.8.9-2.284-1.646-1.752-3.345.212-.69.584-.85,1.009-.85A1.264,1.264,0,0,1,1438.256,450.432Z" transform="translate(-1380.014 -425.687)"/><path class="j" d="M1437.463,470.712c.372-.106,1.274-.372,1.434-.956,0-.106.053-.265,0-.372-.212-.372-.849-.159-1.806-.106a19.392,19.392,0,0,1-3.08-.053,6.9,6.9,0,0,0,.637,1.381C1435.232,471.4,1436.932,470.871,1437.463,470.712Z" transform="translate(-1383.575 -435.028)"/><path class="j" d="M1432.209,454.346a1.166,1.166,0,0,0,.97,1.288l.218.019c.9.069,1.456.095,2.418.095a.531.531,0,0,0,0-1.062c-.931,0-1.466-.024-2.336-.091l-.172-.013a.362.362,0,0,1-.048-.073l.8-5.7,0-.074V445.6a.531.531,0,0,0-1.062,0v3.1Z" transform="translate(-1382.723 -423.727)"/><path class="j" d="M1491.79,443.387a7.7,7.7,0,0,1-.743,4.612,6.993,6.993,0,0,1-3.628,3.373.531.531,0,0,0,.445.964,8.9,8.9,0,0,0,1.862-1.111,7.928,7.928,0,0,0,2.267-2.745,8.752,8.752,0,0,0,.846-5.258.531.531,0,1,0-1.049.164Z" transform="translate(-1408.478 -422.649)"/><path class="j" d="M1429.226,450.8c-.053.9-.212,2.39-.743,2.921-.9.8-2.071-1.859-1.381-3.5.266-.69.637-.8,1.062-.743A1.317,1.317,0,0,1,1429.226,450.8Zm9.505-.159c.053.9.053,2.39-.478,3.027-.8.9-2.283-1.646-1.752-3.345.212-.69.584-.85,1.009-.85A1.264,1.264,0,0,1,1438.731,450.645Z" transform="translate(-1380.236 -425.787)"/><path class="j" d="M1437.938,470.925c.372-.106,1.274-.372,1.434-.956,0-.106.053-.266,0-.372-.213-.372-.85-.159-1.806-.106a19.392,19.392,0,0,1-3.08-.053,6.915,6.915,0,0,0,.637,1.381C1435.707,471.615,1437.406,471.084,1437.938,470.925Z" transform="translate(-1383.797 -435.128)"/><path class="j" d="M1492.265,443.6a7.7,7.7,0,0,1-.743,4.612,7,7,0,0,1-3.627,3.374.531.531,0,1,0,.445.964,8.931,8.931,0,0,0,1.862-1.111,7.927,7.927,0,0,0,2.267-2.744,8.75,8.75,0,0,0,.846-5.258.531.531,0,1,0-1.049.164Z" transform="translate(-1408.701 -422.748)"/><path class="j" d="M1472.694,606.86a.8.8,0,1,1-1.522.468c-1.513-4.918-6.345-19.824-7.367-22.578a.8.8,0,0,1,1.494-.554C1466.334,586.987,1471.172,601.914,1472.694,606.86Zm-72.515-44.6c-1.328,12.274-2.39,22.065-4.779,44.075a.8.8,0,0,1-1.584-.172c2.389-22.009,3.452-31.8,4.779-44.074a.8.8,0,0,1,1.584.171Z" transform="translate(-1364.721 -478.271)"/><path class="j" d="M1460.344,489.321l4.35-1.938-4.247,7Z" transform="translate(-1395.924 -443.57)"/></g></g><g transform="translate(908.602 680.965)"><path class="k" d="M1236.7,640.079a3.081,3.081,0,0,0,2.683,1.567h76.307a3.037,3.037,0,0,0,3.027-3.08,3.071,3.071,0,0,0-3.027-3.08H1241.47L1215.6,565.87a3.058,3.058,0,0,0-5.735,2.124l26.6,71.581A3.049,3.049,0,0,0,1236.7,640.079Z" transform="translate(-1209.67 -563.874)"/></g></g><g transform="translate(47.013 331.883)"><path class="c" d="M229.717,710H865.34a3.717,3.717,0,0,1,3.717,3.717h0a3.717,3.717,0,0,1-3.717,3.717H229.717A3.717,3.717,0,0,1,226,713.717h0A3.717,3.717,0,0,1,229.717,710Z" transform="translate(-226 -710)"/></g><g transform="translate(-339.247 -426.676)"><g transform="translate(491.401 681.032)"><path class="k" d="M506.016,640.205a3.081,3.081,0,0,1-2.683,1.567H427.027a3.037,3.037,0,0,1-3.027-3.08,3.071,3.071,0,0,1,3.027-3.08h74.222L527.123,566a3.058,3.058,0,1,1,5.735,2.124l-26.6,71.581A3.1,3.1,0,0,1,506.016,640.205Z" transform="translate(-424 -564)"/></g><g transform="translate(339.247 689.034)"><g transform="translate(0)"><path class="c" d="M156.494,734.945v.1a2.4,2.4,0,0,0,2.39,2.336h40.092L184.85,763.295q-15.134,27.719-30.162,55.385l-16.621,30.48a2.33,2.33,0,0,0,1.009,3.08l.212.106a2.249,2.249,0,0,0,3.08-.743l62.182-114.221H245.97L308.152,851.6a2.3,2.3,0,0,0,3.08.743l.212-.106a2.33,2.33,0,0,0,1.009-3.08l-16.621-30.48Q280.7,790.96,265.671,763.295l-14.126-25.914H304.7a2.369,2.369,0,0,0,2.39-2.336v-.266a2.4,2.4,0,0,0-2.39-2.336H161.182l-4.476-36.215q-4.62-36.959-9.187-74.023l-5.045-40.782a2.533,2.533,0,0,0-2.708-2.336l-.266.053a2.511,2.511,0,0,0-2.018,2.814l18.957,152.719C156.455,734.766,156.472,734.857,156.494,734.945Z" transform="translate(-137.466 -579.07)"/></g></g><g transform="translate(618.965 689.422)"><g transform="translate(0)"><path class="c" d="M725.387,738.042h-42a2.4,2.4,0,0,1-2.39-2.336v-.266a2.429,2.429,0,0,1,2.5-2.336H829.2a2.4,2.4,0,0,1,2.39,2.336v.266a2.369,2.369,0,0,1-2.39,2.336H777.955l14.126,25.914q15.054,27.719,30.161,55.385l16.621,30.48a2.33,2.33,0,0,1-1.009,3.08l-.212.106a2.3,2.3,0,0,1-3.08-.743L772.381,738.042H730.962L668.78,852.263a2.249,2.249,0,0,1-3.08.743l-.212-.106a2.33,2.33,0,0,1-1.009-3.08L681.1,819.34q15.054-27.719,30.162-55.385Zm-44.234-20.809V587.765a7.965,7.965,0,0,1,7.965-7.965h86.661a7.965,7.965,0,0,1,7.965,7.965V717.324a7.965,7.965,0,0,1-7.965,7.965h-.009l-86.661-.091A7.965,7.965,0,0,1,681.152,717.233Z" transform="translate(-664.228 -579.8)"/></g></g><g transform="translate(618.776 600.85)"><g transform="translate(0)"><g transform="translate(18.933 163.02)"><path class="d" d="M879.021,1090.779H794.643a2.39,2.39,0,1,1,0-4.779h84.378a2.39,2.39,0,0,1,0,4.779Zm-154.631,0a2.233,2.233,0,0,1-2.39-2.022v-.735a2.268,2.268,0,0,1,2.39-2.022h54.429a2.234,2.234,0,0,1,2.39,2.022v.735a2.268,2.268,0,0,1-2.39,2.022Z" transform="translate(-710.066 -891.649)"/><path class="d" d="M881.961,1057.071a2.4,2.4,0,0,0-.836-.148H796.747a2.4,2.4,0,0,0-1.067.248,2.633,2.633,0,0,1-.1-.726l1.858-29.365a2.681,2.681,0,0,1,2.655-2.868l33.826-.212a2.506,2.506,0,0,1,1.593.531,57.025,57.025,0,0,0,16.037,12.213c3.239,1.646,14.072,6.213,18.957,8.443a62.964,62.964,0,0,1,7.222,3.876,2.219,2.219,0,0,1,.425.319,13.008,13.008,0,0,1,3.77,5.522,5.374,5.374,0,0,1,.159.9,4,4,0,0,1,0,.8v.053A2.8,2.8,0,0,1,881.961,1057.071Zm-100.732-.132a2.9,2.9,0,0,0-.306-.016H726.487l12.326-32.87,38.021,5.151Z" transform="translate(-712.17 -862.572)"/><path class="d" d="M782.1,789.838q-2.755,2-4.8,3.479l-.682,11.274c-.319,5.962-.69,11.2-1.115,15.814-.318,3.629-4.407,44.744-5.894,59.832a8.306,8.306,0,0,1-5.735,7.258c-4.726,1.452-40.2-.207-41.525-.83a11.122,11.122,0,0,1-3.5-2.022c-3.186-3.007-2.974-7.777-3.027-9.54-.319-13.325-1.274-53.4-1.274-81.452v-.276c-3.5-3-6.6-7.525-9.019-13.137-3.684-8.479-5.932-19.507-5.995-31.477V727.038c.062-3.935,3.809-7.038,8.243-7.038h49.019l20.358.665q15.89.42,45.217,1.234a20.71,20.71,0,0,1,17.961,11.465,30.393,30.393,0,0,1,2.963,8.042,24.492,24.492,0,0,1,3.157,12.673v.259c-.85,42.575-10.78,103.227-11.47,123.737a9.465,9.465,0,0,1-1.38,4.3c-3.452,5.542-11.523,4.3-30.374,4.765-16.037.414-22.515,1.657-25.807-2.9a10.352,10.352,0,0,1-1.7-6.63C777.2,848.125,779.462,818.327,782.1,789.838Z" transform="translate(-699.526 -720)"/><path class="g" d="M782.306,790.034q-2.762,2-4.8,3.472l2.038-33.659c.053-2.333.319-16.436-10.249-25.405-7.7-6.481-17.046-6.9-23.258-7.155a49.081,49.081,0,0,0-18.426,2.8,31.854,31.854,0,0,0-3.611,1.5c-10.3,5.392-9.505,31.315-9.4,36.034.1,5.871.158,14.959.159,25.532a36.452,36.452,0,0,1-8.768-12.918c-3.684-8.479-5.932-19.507-5.995-31.477V727.038c.063-3.935,3.809-7.038,8.243-7.038h49.02l20.357.665q15.891.42,45.217,1.234A20.71,20.71,0,0,1,840.8,733.364a27.921,27.921,0,0,1,3.049,8.66,23.454,23.454,0,0,0-21.182-12.652l-13.329.311a24.074,24.074,0,0,0-23.152,21.7C784.835,763.879,783.529,776.816,782.306,790.034Z" transform="translate(-699.748 -720)"/></g><path class="e" d="M751.914,510.244a35.556,35.556,0,0,1,17.151,4.617,30.345,30.345,0,0,1,4.559,3.231c1.537,1.324,6.043,5.721,10.338,18.117,1.537,4.344,6.043,12.82,8.641,17.481a2.438,2.438,0,0,1-1.961,3.6c-5.682.408-12.69,2.74-19.312,2.752.545,9.909.93,21.728,1.076,34.911,0,0,.848,15.689-4.029,20.775-.844.895-16.682-.037-33.5.5-18.039.573-37.257,2.432-41.729-2.255-7.231-7.58-3.1-9.633,3.539-52.815-1.04.107-2.008.2-2.869.28-6.7.637-20.742.212-27.5-.053a2.678,2.678,0,0,1-2.217-3.77c2.217-5.15,6.122-14.441,7.284-19.167,3.325-13.486,7.495-18.424,8.919-19.91a39.909,39.909,0,0,1,4.275-3.664q5.012-4.065,31.615-5.866c7.643-2.6,16.371-1.856,22.021-1.352C742.162,508.014,747.143,508.458,751.914,510.244Z" transform="translate(-663.872 -457.159)"/><path class="g" d="M801.392,509.248a35.447,35.447,0,0,1,16.623,4.613,30.428,30.428,0,0,1,4.567,3.239c1.54,1.328,6.054,5.735,10.355,18.161,1.54,4.354,6.372,12.735,8.974,17.408a2.443,2.443,0,0,1-1.965,3.611c-1.659.119-3.528.465-5.3.759-.7.116-2.647.342-3.512.525-4.185.883-6.623,1.469-10.525,1.469h-.06c-.841-15.28-2.062-26.026-3.382-30.241-.9-2.867-2.212-6.159-2.212-6.159a20.888,20.888,0,0,0-3.736-6.373A22.928,22.928,0,0,0,801.392,509.248Zm-12.5,5.662c-.956,5.629-2.708,7.29-2.708,7.29-4.036-2.336-18.426-9.627-17.1-13.609.106-.266.319-.8,1.7-1.646,5.2-3.186,11.576-1.646,13.806-1.009,0,0,10.249-1.168,12.213,4.832a13.647,13.647,0,0,1-.372,10.249A55.721,55.721,0,0,1,788.893,514.91Z" transform="translate(-713.175 -456.148)"/><path class="l" d="M774.039,559.188,773,516.388l14.07-1.993,4.3,52.481q.553.287,1.074.567,4.564,2.446,7.566,8.907a1.593,1.593,0,0,1-1.468,2.264l-111.824-1.619c-26.7-5.293-19.434-41.5-14.207-59.1,7.336.229,17.7.414,23.183-.1,5.182-.471,14.18-1.51,19.471-2.3l-9.488,28.428C731.157,545.184,756.179,552.281,774.039,559.188Zm-29.782-99.352-.24,9.8a18.516,18.516,0,0,1-17.364-2.018l1.144-21.9q-.185-.4-.359-.84c-.956-2.39-4.4-10.235-3.653-12.943.136-.572-2.7-9.083,1.454-13.376,3.946-4.077,14.887-3.962,15.327-3.936a23.786,23.786,0,0,0,5.735-.425c.212,0,.425-.053.637-.053,1.805-.159,11.948-.637,17.152,6.9a10.69,10.69,0,0,1,1.274,2.177,13.81,13.81,0,0,1,1.009,6.213l-.743,9.452a23.919,23.919,0,0,1-.478,2.814c-1.54,6.691-4.036,12.16-6.691,15.612-1.965,2.6-4.089,4.089-5.947,4.142a22.038,22.038,0,0,1-6.744-1.009A10.938,10.938,0,0,1,744.256,459.835Z" transform="translate(-665.571 -413.503)"/><path class="j" d="M741.356,597.489a.8.8,0,1,1-1.461-.635,33.908,33.908,0,0,0,2.238-7.136.8.8,0,1,1,1.553.358A35.454,35.454,0,0,1,741.356,597.489ZM731.1,624.894a.8.8,0,0,1,.15,1.586c-.1.01-.306.033-.593.071-.483.065-1.023.15-1.6.259a29.824,29.824,0,0,0-4.86,1.312,18.727,18.727,0,0,0-2.51,1.131.8.8,0,1,1-.768-1.4,20.275,20.275,0,0,1,2.725-1.229,31.4,31.4,0,0,1,5.122-1.384c.61-.114,1.176-.2,1.685-.271q.269-.037.477-.06Z" transform="translate(-690.43 -495.589)"/><path class="i" d="M884.374,655.535a174.69,174.69,0,0,0-17.335-7.712L866,604.993,880.07,603Z" transform="translate(-758.667 -502.109)"/><path class="j" d="M805.474,497.3l-.149,5.426-7.331-8.8.322.158c1.062.531,2.39,1.115,4.089,1.859C803.893,496.611,804.849,497.033,805.474,497.3Z" transform="translate(-726.773 -450.957)"/><path class="m" d="M781.377,434.094l-.047-1.021a9.22,9.22,0,0,0-1.54-3.823,6.852,6.852,0,0,0-2.389-1.858c-2.5-.956-5.788.159-7.594,2.443a7.715,7.715,0,0,0-.9,7.859,7.565,7.565,0,0,0,3.664,3.823l3.08.956.013-.006c-2.691,3.947-5.035,7.387-5.035,7.387a44.675,44.675,0,0,1-6.4-7.328c-.956-1.593-4.354-5.469-4.938-11.576-.159-2.018-.8-8.868,3.77-13.913a13.3,13.3,0,0,1,4.142-2.974c4.2-1.859,7.275-.743,15.346-.584.637,0,1.7.053,3.08,0,2.5-.053,4.248-.159,4.726-.159,3.983-.159,12.638,1.062,16.461,6.956a10.236,10.236,0,0,0,.69,1.115,24.524,24.524,0,0,1-3.823,1.327,19.607,19.607,0,0,1-9.558-.9c-4.036,3.823-8.125,7.594-12.16,11.417Z" transform="translate(-708.566 -413.002)"/><path class="j" d="M836.339,461.744a1.326,1.326,0,0,1,1.434-1.009c.425.053.743.372.9,1.115.159,1.859-1.859,4.195-2.443,3.08C835.861,464.187,836.18,462.647,836.339,461.744ZM825.121,460.3a1.326,1.326,0,0,1,1.434-1.009c.425.053.743.372.9,1.115.159,1.859-1.859,4.2-2.443,3.08C824.59,462.739,824.909,461.2,825.121,460.3Z" transform="translate(-739.348 -434.702)"/><path class="j" d="M836.886,464.136l.053,5.31a.228.228,0,0,1-.106.1c-.291,0-.587-.019-1.051-.064l-.319-.032-.354-.036c-.306-.031-.56-.055-.832-.079a.531.531,0,1,0-.092,1.058c.266.023.516.047.818.078l.353.036.325.032c.494.048.821.069,1.153.069A1.214,1.214,0,0,0,838,469.441l-.053-5.315a.531.531,0,0,0-1.062.011Z" transform="translate(-743.519 -436.732)"/><path class="j" d="M831.516,480.737c-.372-.159-1.274-.584-1.328-1.115,0-.106-.053-.266.053-.319.266-.266.9,0,1.859.266a20.692,20.692,0,0,0,3.08.531,5.119,5.119,0,0,1-.85,1.062C833.693,481.745,832.047,481,831.516,480.737Z" transform="translate(-741.866 -444.045)"/><path class="j" d="M820.238,457.355a7.542,7.542,0,1,1-14.366-4.54L801.662,451a.8.8,0,1,1,.473-1.521l4.443,1.914a7.541,7.541,0,0,1,13.9,4.046c0,.113,0,.226-.007.337l1.656.172a7.547,7.547,0,1,1-.162,1.585Zm-12.687-4.426a5.952,5.952,0,1,0,.167-.33c0,.017-.009.035-.014.052A.787.787,0,0,1,807.55,452.929Zm16.03,4.13q-.017.224-.017.452a5.942,5.942,0,1,0,.049-.769.774.774,0,0,1,0,.161A.8.8,0,0,1,823.58,457.059Z" transform="translate(-728.231 -429.369)"/></g></g><g transform="translate(367.911 601.67)"><g transform="translate(6.98 157.098)"><path class="e" d="M287.921,1055.077c-.053-.033-.1-.069-.155-.107l-53.314-39.72a2.427,2.427,0,1,1,2.921-3.876l52.743,39.3H318.83a2.443,2.443,0,1,1,0,4.885H289.359A2.384,2.384,0,0,1,287.921,1055.077Zm169.77.477H373.312a2.39,2.39,0,1,1,0-4.779H457.69a2.39,2.39,0,0,1,0,4.779Z" transform="translate(-218.144 -851.324)"/><path class="d" d="M461.6,1026.771a2.42,2.42,0,0,0-.8-.134H376.424a2.436,2.436,0,0,0-.643.086,2.616,2.616,0,0,1-.264-1.152l-.8-29.365a2.681,2.681,0,0,1,2.655-2.867l36.481-.212a2.506,2.506,0,0,1,1.593.531,57.033,57.033,0,0,0,16.037,12.213c3.239,1.646,14.072,6.213,18.957,8.443a62.983,62.983,0,0,1,7.222,3.876,2.226,2.226,0,0,1,.425.319,13.009,13.009,0,0,1,3.77,5.523,5.361,5.361,0,0,1,.159.9,3.993,3.993,0,0,1,0,.8v.053A2.752,2.752,0,0,1,461.6,1026.771Zm-138.584.016a2.385,2.385,0,0,0-1.074-.256H293.228l-52.544-39.146L260.5,959.3l31.967,23.205c1.752,5.947,3.558,11.895,5.363,17.9.956,3.133,1.912,6.213,2.867,9.293,2.974,1.168,5.523,2.23,7.328,3.027a60.33,60.33,0,0,1,9.558,4.938,15.226,15.226,0,0,1,4.3,4.142,10.892,10.892,0,0,1,1.168,2.655,11.038,11.038,0,0,1,.159,1.221A5.4,5.4,0,0,1,323.016,1026.787Z" transform="translate(-221.517 -827.128)"/><path class="e" d="M373.323,717.3l14.5-.19c4.354-.265,9.824,2.443,13.913,5.523a17.078,17.078,0,0,1,2.283,2.071,18.4,18.4,0,0,1,1.806,2.23,19.467,19.467,0,0,1,3.5,11.417c-.106,8.868-1.168,15.771-1.859,18.054-4.514,13.966-16.09,66.377-4.461,89.051,0,0,5.894,11.417,4.62,19.966a33.108,33.108,0,0,1-2.969,8.651l.041.054c-4.438,6.4-59.568,15.809-101.925,1.9-5.785-1.9-14.231-4.089-23.9-8.39a5.352,5.352,0,0,1-1.221-.637c-6.531-4.2-13.063-8.337-19.594-12.532L241.66,843.947a6.377,6.377,0,0,1-2.018-8.974l13.328-19.435,7.965-11.629c2.23-3.292,4.567-6.691,6.956-10.142q1.705.054-6.16-.266c-18.28-.744-42.109-4.248-51.137-18.745-4.567-7.381-5.363-15.134-5.735-18.692-2.071-20.763,8.288-31.458,11.682-34.835q3.395-3.376,17.093-10.836L293.09,713.9l57.374,2.124A93.222,93.222,0,0,1,373.323,717.3Z" transform="translate(-204.589 -710.394)"/><path class="i" d="M522,723.211l14.687-.193c4.354-.266,9.824,2.443,13.913,5.523a17.1,17.1,0,0,1,2.283,2.071,18.392,18.392,0,0,1,1.805,2.23,19.467,19.467,0,0,1,3.5,11.417c-.106,8.868-1.168,15.771-1.859,18.054-4.514,13.966-16.09,66.377-4.461,89.051,0,0,5.894,11.417,4.62,19.966a33.248,33.248,0,0,1-3,8.706c-4.786-6.4-23.726-35.615-16.221-85.558.212-1.274,4.87-28.8,4.87-36.4,0-27.424-6.642-31.326-18.161-34.386Q523,723.432,522,723.211Z" transform="translate(-353.451 -716.306)"/><path class="j" d="M348.19,800.176c-2.62,3.963-5.379,7.813-12.079,16.978-6.722,9.195-9.49,13.058-12.135,17.06a1.062,1.062,0,0,0,1.771,1.172c2.62-3.963,5.379-7.813,12.079-16.978,6.722-9.195,9.49-13.058,12.135-17.06a1.062,1.062,0,0,0-1.771-1.171Z" transform="translate(-260.497 -752.277)"/></g><path class="d" d="M259.262,524.78a17.856,17.856,0,0,1,14.041,4.895c4.46,4.248,2.336,7.965,9.027,19.329,3.345,5.629,6.531,9.346,5.363,12.851q-.637,1.965-3.77,3.664-6.956.9-8.549,1.062c-.286.026-.613.058-.95.093l-.855,14.98-.053.531-1.487,26.391-.319,5.151a9.487,9.487,0,0,1-.106,1.221c-.053.478-.106.9-.159,1.381a26.446,26.446,0,0,1-.743,3.558,15.11,15.11,0,0,1-.478,1.434l-54.27-.425-5.813-54.222-13.728-.473q-3.877-1.434-4.673-3.345c-1.434-3.452,2.6-7.487,6.8-13.541,8.443-12.107,5.841-15.665,11.364-20.391a27.129,27.129,0,0,1,19.841-6.859l.337-.1a26.131,26.131,0,0,1,8.443-.9l11.682.744A19.112,19.112,0,0,1,259.262,524.78Z" transform="translate(-191.444 -464.484)"/><path class="g" d="M318.795,528.065a17.9,17.9,0,0,1,14.234,4.881c4.46,4.248,2.336,7.965,9.027,19.329,3.345,5.629,6.531,9.346,5.363,12.851q-.637,1.965-3.77,3.664-6.956.9-8.549,1.062c-.353.032-.769.074-1.188.117l.793-13.891c-.9-10.036-6.266-20.816-14.019-26.71Q319.762,528.667,318.795,528.065Z" transform="translate(-251.17 -467.755)"/><path class="n" d="M282.088,555.621l.868-15.409.053-.531.858-15.032,8.816-1.08,2.743,33.194q8.777.718,17.661,1.357c6.425.478,12.851.9,19.17,1.274.872-.509,8.149-1.179,16.534,0a65.084,65.084,0,0,1,11.344,3.174q14.178,4.151,19.027,5.895c4.849,1.744,0,5-6.761,5-1.359,0-20.738.713-26.369,1.5l.3-.04,3.319.9a19.317,19.317,0,0,1,4.939,1.953l4.277,2.4a2.377,2.377,0,0,1,.931,1.189c.606,1.573.425,4.415-.931,4.409l-82.329-2.53q2.072-.154,4.139-.32c-12.652.931-25.331,1.506-39.7,1.416-8.39-.053-10.514-.319-13.063-1.646-10.939-5.682-13.063-22.143-14.815-36.534a128.449,128.449,0,0,1-.911-21.642q25.323.872,39.635,1.346,0,.645-.013,1.232c-.053,5.523-.212,10.62.265,18.161.212,3.133.266,5.735.372,7.434Q267.1,554.28,282.088,555.621ZM264.61,476.949l-.723,2.8c2.485.934,4.641,2.677,6.985,4.454a6.065,6.065,0,0,1-1.593,3.027c-4.2,4.195-17.612.637-30.622-7.328a29.6,29.6,0,0,1,9.116-1.62q.623-.017,1.459,0c1.24-2.565,2.432-4.884,3.734-7.753l-.042-.025,1.328-9.664c-.053-.584.106-.106-.425-.319a7.6,7.6,0,0,1-3.4-2.549,8.153,8.153,0,0,1-.8-7.753c1.221-2.5,4.142-4.3,6.691-3.876a5.6,5.6,0,0,1,2.6,1.221l.053.053a1.73,1.73,0,0,0,.956.425,1.658,1.658,0,0,0,1.805-1.434l1.487-13.806c.053-.9-.478-1.292.424-1.239a63.7,63.7,0,0,0,6.5,0h2.527c1.269.212,11-.3,15.935,7.664a23.966,23.966,0,0,1,1.168,2.336,12.719,12.719,0,0,1,.8,6.319l-1.274,9.611a27.761,27.761,0,0,1-.637,2.867c-3.4,11.735-9.4,19.594-13.966,19.541a21.552,21.552,0,0,1-6.85-1.381C267.56,478.379,267.744,478.492,264.61,476.949Z" transform="translate(-201.121 -422.525)"/><path class="i" d="M338.579,637.165l.879-15.6.053-.531.86-15.057,9.062-1.144,2.54,33.479Q345.244,637.761,338.579,637.165Zm64.485,19.091,3.013.813a19.45,19.45,0,0,1,5,1.872c1.425.8,3.117,1.71,4.543,2.511a2.377,2.377,0,0,1,.931,1.19c.606,1.573.425,4.415-.931,4.409l-82.534-2.445c11.076-.82,22-1.937,33.865-3.065,3.664-.319,33.807-4.514,35.507-5.2C402.641,656.309,402.845,656.282,403.064,656.256Z" transform="translate(-257.87 -503.789)"/><path class="j" d="M274.677,624.348a.8.8,0,0,1-.161-1.585l6.8-.69a.8.8,0,1,1,.161,1.585Zm5.891-27.833a.8.8,0,0,1,.27-1.57c.017,0,.066.01.142.017a4.711,4.711,0,0,0,2.215-.3c1.334-.549,2.169-1.756,2.288-3.962a32,32,0,0,0-.248-6.827c-.067-.407-.139-.747-.21-1.022-.04-.156-.068-.25-.081-.285a.8.8,0,0,1,1.5-.532,10.186,10.186,0,0,1,.361,1.578,33.591,33.591,0,0,1,.268,7.175c-.152,2.812-1.364,4.563-3.273,5.349a6.245,6.245,0,0,1-2.975.417C280.711,596.537,280.623,596.525,280.568,596.516Z" transform="translate(-230.068 -492.846)"/><path class="j" d="M306.569,514.489,301.1,512.1l3.876,7.912Z" transform="translate(-242.871 -460.298)"/><path class="o" d="M263.124,448.253l-1.466-5.215a8.376,8.376,0,0,0-2.283-3.292,5.6,5.6,0,0,0-2.6-1.221c-2.549-.425-5.469,1.381-6.691,3.876a7.264,7.264,0,0,0,.8,7.593,7.519,7.519,0,0,0,4.205,2.844c-.739,4.115-1.816,9.795-1.816,9.795l-3.915-1.817q-9.479-5.3-10.3-19.773c-10.286,3.964-20.117,1.2-23.964-4.7-2.921-4.514-2.278-10.528-2.071-11.364,2.071-8.356,9.187-9.611,9.187-9.611s10.249-5.257,21.187,10.78l.124.184a12.6,12.6,0,0,1,4.23-2.786c4.407-1.805,7.54-.531,15.93-.159,1.7.106,4.248.159,7.434.053h.69c1.912-.053,12.248-.107,17.187,7.858a3.453,3.453,0,0,1-.247.532S278.486,449.54,263.124,448.253Zm20.306-1.6a9.133,9.133,0,0,1-4.2-.425c-2.39-.9.159-2.018,2.39-1.805a3.462,3.462,0,0,1,2.283,1.115A.7.7,0,0,1,283.43,446.649Zm8.974,1.115a8.866,8.866,0,0,1-4.248-.053c-2.5-.69-.106-2.071,2.177-2.018a3.717,3.717,0,0,1,2.443.956A.666.666,0,0,1,292.4,447.764Z" transform="translate(-201.465 -414.548)"/><path class="j" d="M345.849,482.935c-.372-.69,0-2.124.266-3.027a1.279,1.279,0,0,1,1.434-.9,1.037,1.037,0,0,1,.8,1.115C348.451,481.926,346.327,484.1,345.849,482.935Zm-8.709-1.221c-.425-.69,0-2.124.265-3.027a1.279,1.279,0,0,1,1.434-.9,1.037,1.037,0,0,1,.8,1.115C339.743,480.7,337.672,482.882,337.141,481.714Z" transform="translate(-259.689 -444.196)"/><path class="j" d="M348.883,479.183a.531.531,0,1,0-1.017-.3l-.9,3.027-.015.068-.9,5.629c0,.02-.049.05-.144.036-.551-.132-1.192-.29-1.873-.466a.531.531,0,1,0-.266,1.028q1.034.267,1.942.481a1.165,1.165,0,0,0,1.389-.908l.9-5.6Z" transform="translate(-262.692 -444.54)"/><path class="j" d="M307.742,515.271,303.6,513.2l1.805,9.771Z" transform="translate(-244.044 -460.814)"/><path class="j" d="M339.96,503.23c-.372-.106-1.274-.425-1.381-1.062,0-.106-.053-.266,0-.372.159-.265,1.859,0,1.859,0,2.124.372,2.708.319,2.814.637.053.159,0,.372-.478.8C342.19,504.026,340.491,503.442,339.96,503.23Z" transform="translate(-260.437 -455.41)"/></g><g transform="translate(739.384 658.198)"><path class="k" d="M931.5,613.4l5.107-20.6H898.275c-3.982,0-7.275-3.027-7.275-6.691V527.744A6.938,6.938,0,0,1,898.222,521h116.664c3.983,0,7.275,3.027,7.275,6.691V586.1c0,3.664-3.292,6.691-7.275,6.691H968.17l-2.108,20.6h13.831a3.77,3.77,0,0,1,0,7.54H920.684a3.751,3.751,0,0,1-3.77-3.77,3.685,3.685,0,0,1,3.77-3.77Z" transform="translate(-890.999 -521)"/><path class="p" d="M1036.083,627.919l.157,35.675h-3.807Z" transform="translate(-957.33 -571.144)"/></g></g><g transform="translate(-339.247 -426.676)"><g transform="translate(797.796 426.676)"><rect class="q" width="179.483" height="138.064" rx="20"/><g transform="translate(24.249 27.507)"><path class="r" d="M1050.239,218.973l26.793-40.765a7.066,7.066,0,0,1,11.175-.8l10.811,12.232a10.966,10.966,0,0,0,17.646-1.677l25.779-43.773a7.054,7.054,0,0,1,11.781-.592l27.345,37.292a1.949,1.949,0,1,0,3.138-2.313l-27.351-37.3a10.944,10.944,0,0,0-18.266.929l-25.778,43.771a7.077,7.077,0,0,1-11.38,1.073l-10.808-12.229a10.953,10.953,0,0,0-17.342,1.24l-26.793,40.765a1.948,1.948,0,1,0,3.251,2.148Z" transform="translate(-1046.666 -136.801)"/><ellipse class="e" cx="5.841" cy="5.856" rx="5.841" ry="5.856" transform="translate(8.673 56.254)"/><ellipse class="s" cx="5.841" cy="5.856" rx="5.841" ry="5.856" transform="translate(73.811 24.666)"/></g></g><g transform="translate(455.292 426.676)"><rect class="q" width="180.014" height="138.064" rx="6"/><g transform="translate(23.789 41.881)"><path class="c" d="M620.233,224.692H626.5c2.367,0,3.225.246,4.091.709a4.825,4.825,0,0,1,2.007,2.007c.463.866.709,1.724.709,4.091v57.078H613.426V231.5c0-2.367.246-3.225.709-4.091a4.824,4.824,0,0,1,2.007-2.007C617.008,224.938,617.866,224.692,620.233,224.692Z" transform="translate(-500.518 -192.394)"/><path class="c" d="M577.44,253.432h6.623c2.367,0,3.225.246,4.091.709a4.826,4.826,0,0,1,2.007,2.007c.463.865.709,1.724.709,4.09v41.817H570.633V260.239c0-2.367.246-3.225.709-4.09a4.819,4.819,0,0,1,2.007-2.007C574.215,253.678,575.073,253.432,577.44,253.432Z" transform="translate(-480.449 -205.873)"/><path class="r" d="M535.316,163.869h6.269c2.367,0,3.225.246,4.091.709a4.822,4.822,0,0,1,2.007,2.007c.463.865.709,1.724.709,4.09v89.376H528.509V170.676c0-2.367.246-3.225.709-4.09a4.819,4.819,0,0,1,2.007-2.007C532.091,164.115,532.949,163.869,535.316,163.869Z" transform="translate(-460.693 -163.869)"/><path class="c" d="M492.523,187.262h6.269c2.367,0,3.225.246,4.091.709a4.819,4.819,0,0,1,2.007,2.007c.463.866.709,1.724.709,4.091v76.953H485.716V194.07c0-2.367.246-3.225.709-4.091a4.819,4.819,0,0,1,2.007-2.007C489.3,187.508,490.156,187.262,492.523,187.262Z" transform="translate(-440.624 -174.84)"/><path class="c" d="M450.4,242.069h6.269c2.367,0,3.225.247,4.091.709a4.831,4.831,0,0,1,2.007,2.007c.463.866.709,1.724.709,4.091v47.85H443.592v-47.85c0-2.367.246-3.225.709-4.091a4.831,4.831,0,0,1,2.007-2.007C447.174,242.316,448.032,242.069,450.4,242.069Z" transform="translate(-420.868 -200.544)"/><path class="c" d="M407.606,214.666h6.269c2.367,0,3.225.246,4.091.709a4.83,4.83,0,0,1,2.007,2.008c.462.865.709,1.724.709,4.09v62.4H400.8v-62.4c0-2.367.246-3.225.709-4.09a4.828,4.828,0,0,1,2.008-2.008C404.381,214.912,405.239,214.666,407.606,214.666Z" transform="translate(-400.799 -187.692)"/></g></g><g transform="translate(611.941 435.703)"><rect class="q" width="195.944" height="150.277" rx="20"/><g transform="translate(49.69 37.444)"><path class="r" d="M817.77,250.03a39.561,39.561,0,1,0-54.144-14.42A39.619,39.619,0,0,0,817.77,250.03Zm-6.34-10.98a26.881,26.881,0,1,1,9.931-36.773A26.933,26.933,0,0,1,811.43,239.05Z" transform="translate(-751.028 -174.23)"/><path class="e" d="M769.435,175.884a45.9,45.9,0,1,0,62.81,16.738l-10.993,6.347a33.333,33.333,0,1,1-45.477-12.1Z" transform="translate(-745.423 -174.094)"/><path class="c" d="M768.259,172.514a47.158,47.158,0,1,0,47.158,81.679l-7.6-13.159a31.963,31.963,0,1,1-31.963-55.361Z" transform="translate(-744.576 -172.514)"/></g><path class="r" d="M651,110.5a8.5,8.5,0,0,1,8.5-8.5H838.446a8.5,8.5,0,0,1,8.5,8.5V119H651Z" transform="translate(-651 -102)"/><circle class="t" cx="3.672" cy="3.672" r="3.672" transform="translate(7.73 5.021)"/><circle class="s" cx="3.672" cy="3.672" r="3.672" transform="translate(19.71 5.021)"/><circle class="u" cx="3.672" cy="3.672" r="3.672" transform="translate(32.078 5.021)"/></g></g></g></svg>