<?xml version="1.0" encoding="UTF-8" standalone="no"?>
<svg xmlns:dc="http://purl.org/dc/elements/1.1/" xmlns:cc="http://creativecommons.org/ns#" xmlns:rdf="http://www.w3.org/1999/02/22-rdf-syntax-ns#" xmlns:svg="http://www.w3.org/2000/svg" xmlns="http://www.w3.org/2000/svg" width="662.10248" height="176.00957" id="svg2" version="1.1" viewBox="0 0 620.72105 165.00897">
  <defs id="defs4">
    <clipPath id="clipPath2999" clipPathUnits="userSpaceOnUse">
      <path id="path3001" d="M 0,1116 H 2528 V 0 H 0 Z"/>
    </clipPath>
  </defs>
  <g id="layer1" transform="translate(338.79803,-423.46358)">
    <g id="g1197">
      <g transform="matrix(0.32767833,0,0,-0.32767833,-4.7299743,576.02078)" id="g3003" style="stroke-width:3.81471658">
        <path id="path3005" style="fill:#ed1c24;fill-opacity:1;fill-rule:evenodd;stroke:none;stroke-width:3.81471658" d="M 0,0 H -12.02 V 20.03 H 0 v 12.05 h -26.04 v -68.66 h 14.02 v 25.06 H 0 Z M 9.541,2.517 C 7.501,1.038 5.031,0 1.538,0 H 0 v -11.52 h 2.517 c 8.033,0 13.563,1.5 17.563,5.015 4.47,2.998 6.5,9.022 6.5,17.025 0,7.53 -2.03,12.51 -6.5,16.52 -4,3.52 -9.53,5.04 -16.075,5.04 H 0 V 20.03 h 1.538 c 3.493,0 5.963,-0.49 8.003,-1.98 2.019,-1.55 2.499,-3.98 2.499,-7.53 0,-3.499 -0.48,-6.475 -2.499,-8.003"/>
      </g>
      <g transform="matrix(0.32767833,0,0,-0.32767833,20.173579,576.02078)" id="g3007" style="stroke-width:3.81471658">
        <path id="path3009" style="fill:#ed1c24;fill-opacity:1;fill-rule:evenodd;stroke:none;stroke-width:3.81471658" d="M 0,0 H -12 V 20.03 H 0 V 32.08 H -26.52 V -36.58 H -12 v 25.06 H 0 Z M 9.054,2.517 C 7.052,1.038 4.546,0 1.063,0 H 0 v -11.52 h 2.554 c 7.546,0 13.526,1.5 17.546,5.015 4.01,2.998 6,9.022 6,17.025 0,7.53 -1.99,12.51 -6,16.52 -4.02,3.52 -9.48,5.04 -16.543,5.04 H 0 V 20.03 h 1.063 c 3.483,0 5.989,-0.49 7.991,-1.98 1.996,-1.55 3.006,-3.98 3.006,-7.53 0,-3.499 -1.01,-6.475 -3.006,-8.003"/>
      </g>
      <g transform="matrix(0.32767833,0,0,-0.32767833,36.557495,587.98104)" id="g3011" style="stroke-width:3.81471658">
        <path id="path3013" style="fill:#ed1c24;fill-opacity:1;fill-rule:evenodd;stroke:none;stroke-width:3.81471658" d="M 0,0 V 68.65 H 14.59 V 12.56 H 48.15 V 0 Z"/>
      </g>
      <path id="path3015" style="fill:#ed1c24;fill-opacity:1;fill-rule:evenodd;stroke:none;stroke-width:1.25" d="m 64.082475,587.98104 h -4.587497 v -22.47873 h 4.587497 z"/>
      <g transform="matrix(0.32767833,0,0,-0.32767833,81.777105,579.42864)" id="g3017" style="stroke-width:3.81471658">
        <path id="path3019" style="fill:#ed1c24;fill-opacity:1;fill-rule:evenodd;stroke:none;stroke-width:3.81471658" d="M 0,0 H -8.918 L 0,26.53 V 42.56 H -7.99 L -32.53,-26.1 h 15 l 5.02,14.54 H 0 Z M 8.564,0 H 0 V -11.56 H 12.59 L 17.08,-26.1 H 32.6 L 8.101,42.56 H 0 v -16.03 0.45 z"/>
      </g>
      <g transform="matrix(0.32767833,0,0,-0.32767833,-29.633527,579.42864)" id="g3021" style="stroke-width:3.81471658">
        <path id="path3023" style="fill:#ed1c24;fill-opacity:1;fill-rule:evenodd;stroke:none;stroke-width:3.81471658" d="M 0,0 H -8.918 L 0,26.53 V 42.56 H -7.995 L -32.54,-26.1 h 15 l 5,14.54 H 0 Z M 8.558,0 H 0 V -11.56 H 12.57 L 17.06,-26.1 H 32.6 L 8.082,42.56 H 0 v -16.03 0.45 z"/>
      </g>
      <g transform="matrix(0.32767833,0,0,-0.32767833,99.471735,587.98104)" id="g3025" style="stroke-width:3.81471658">
        <path id="path3027" style="fill:#ed1c24;fill-opacity:1;fill-rule:evenodd;stroke:none;stroke-width:3.81471658" d="M 0,0 V 68.65 H 14.94 L 42.53,21.03 V 68.65 H 55.58 V 0 H 41.59 L 13.47,49.08 V 0 Z"/>
      </g>
      <g transform="matrix(0.32767833,0,0,-0.32767833,125.35832,576.80721)" id="g3029" style="stroke-width:3.81471658">
        <path id="path3031" style="fill:#ed1c24;fill-opacity:1;fill-rule:evenodd;stroke:none;stroke-width:3.81471658" d="m 0,0 c 0,12.02 2.956,21.04 9.52,27.57 5.51,5.47 12.51,8.48 21.01,8.48 11.52,0 20.02,-3.97 25.57,-11.48 2.98,-4.04 4.51,-8.58 4.51,-12.55 H 46.6 c -1,2.95 -2.53,5.48 -4.06,6.96 -2.49,3.04 -5.96,4.56 -11.47,4.56 -5.02,0 -9.04,-2.04 -12.05,-6.04 -2.96,-4.5 -4.48,-9.98 -4.48,-18.014 0,-7.495 1.52,-13.526 4.48,-17.026 3.48,-4.01 7.52,-6.03 12.05,-6.03 4.97,0 8.98,2.02 11.47,5.04 1.53,1.95 3.06,4.49 4.06,7.94 h 14.01 c -1.53,-7.48 -4.51,-13.51 -9.52,-18 -5.02,-5 -11.53,-7.01 -19.56,-7.01 -9.98,0 -17.53,3 -23.54,9.49 C 2.494,-20.07 0,-11.02 0,0"/>
      </g>
      <g transform="matrix(0.32767833,0,0,-0.32767833,169.26722,565.50231)" id="g3033" style="stroke-width:3.81471658">
        <path id="path3035" style="fill:#ed1c24;fill-opacity:1;fill-rule:evenodd;stroke:none;stroke-width:3.81471658" d="M 0,0 V -12.02 H -36.09 V -26.53 H -3.018 V -38.57 H -36.09 V -56.09 H 1.956 V -68.65 H -50.14 V 0 Z"/>
      </g>
      <g transform="matrix(0.32767833,0,0,-0.32767833,176.80382,580.93596)" id="g3037" style="stroke-width:3.81471658">
        <path id="path3039" style="fill:#ed1c24;fill-opacity:1;fill-rule:evenodd;stroke:none;stroke-width:3.81471658" d="m 0,0 h 13.49 c 0.5,-3.487 1.53,-5.479 2.53,-6.971 2.48,-3.039 6.49,-4.529 11.98,-4.529 3.52,0 6.02,0.53 8.5,1.05 3.56,1.507 5.58,4.518 5.58,8.012 0,2.438 -0.54,4.001 -2.49,5.503 -2.07,0.959 -5.57,1.988 -9.51,2.974 l -7.57,1.553 c -6.97,2.005 -12,3.518 -14.605,5.468 -4.484,3.1 -6.952,8.01 -6.952,14.51 0,6.53 2.468,11.55 6.547,15.61 4.48,3.97 11,5.93 20.01,5.93 6.99,0 13.01,-1.96 18.57,-5.42 5.01,-4.06 7.49,-9.59 8.03,-17.09 H 40.06 c 0,4.51 -2.03,7.5 -5.56,9.07 -2,0.99 -4.96,1.5 -7.98,1.5 -4.01,0 -6.54,-0.51 -9.03,-2.06 -1.95,-1.48 -2.97,-3.54 -2.97,-6.52 0,-1.99 1.02,-3.97 2.97,-5 1.52,-1 4.55,-1.99 9.03,-2.97 l 11.51,-3.04 c 5.56,-1.05 9.51,-2.99 12,-4.98 4.08,-3.003 6.02,-7.547 6.02,-14.042 0,-6.041 -2.48,-11.018 -6.97,-15.578 -5.02,-3.97 -11.56,-5.97 -20.53,-5.97 -9.05,0 -16.09,2 -21.05,5.97 C 2.479,-13.02 0,-7.483 0,0"/>
      </g>
      <g transform="matrix(0.32767833,0,0,-0.32767833,215.79754,587.98104)" id="g3041" style="stroke-width:3.81471658">
        <path id="path3043" style="fill:#ed1c24;fill-opacity:1;fill-rule:evenodd;stroke:none;stroke-width:3.81471658" d="M 0,0 V 68.65 H 14.04 V 12.56 H 47.59 V 0 Z"/>
      </g>
      <g transform="matrix(0.32767833,0,0,-0.32767833,236.76895,565.50231)" id="g3045" style="stroke-width:3.81471658">
        <path id="path3047" style="fill:#ed1c24;fill-opacity:1;fill-rule:evenodd;stroke:none;stroke-width:3.81471658" d="M 0,0 H 55.58 V -12.02 H 35.09 V -68.65 H 21.02 v 56.63 H 0 Z"/>
      </g>
      <g transform="matrix(0.32767833,0,0,-0.32767833,271.50286,584.08167)" id="g3049" style="stroke-width:3.81471658">
        <path id="path3051" style="fill:#ed1c24;fill-opacity:1;fill-rule:evenodd;stroke:none;stroke-width:3.81471658" d="M 0,0 H -1.491 -15.03 V 44.64 H -1.491 0 V 56.68 H -29.06 V -11.98 H 0 Z m 11.56,39.14 c 2,-3.47 3.02,-8.99 3.02,-16.03 0,-5 -0.52,-9.55 -2.02,-13 C 10.03,4.049 5.533,0.585 0,0 v -11.98 h 0.562 c 10.468,0 18.018,4.483 23.008,13.017 3.48,6.544 5.54,14.063 5.54,23.083 0,3.47 -0.54,7.5 -1.52,11.55 -0.54,3.96 -2.57,7.5 -4.56,11.03 -2.91,3.94 -6.97,6.96 -12,8.47 -2.491,0.97 -6.035,1.51 -10.468,1.51 H 0 V 44.64 c 5.533,0 9.541,-1.98 11.56,-5.5"/>
      </g>
      <g transform="matrix(0.32767833,0,0,-0.32767833,-338.30651,533.97965)" id="g3053" style="stroke-width:3.81471658">
        <path id="path3055" style="fill:#231f20;fill-opacity:1;fill-rule:evenodd;stroke:none;stroke-width:3.81471658" d="M 0,0 V 293.7 H 90.21 V 190.4 h 99.19 v 103.3 h 91.2 V 0 H 189.4 V 118.8 H 90.21 V 0 Z"/>
      </g>
      <g transform="matrix(0.32767833,0,0,-0.32767833,-201.36974,485.84371)" id="g3057" style="stroke-width:3.81471658">
        <path id="path3059" style="fill:#ed1c24;fill-opacity:1;fill-rule:evenodd;stroke:none;stroke-width:3.81471658" d="M 0,0 C 7.031,9.492 17.05,14.49 29.57,14.49 V 70.13 H 29.06 C 4.49,70.13 -16.55,65.63 -34.6,56.57 -53.12,47.6 -67.13,34.02 -77.16,16.96 -87.2,0 -92.2,-19.54 -92.2,-41.11 c 0,-31.09 9.98,-57.15 31.09,-77.69 11.52,-11 24.5,-19.5 39.08,-25.1 14.02,-4.9 31.053,-8 51.09,-8 h 0.51 v 55.62 c -13.03,0 -23.051,4.58 -30.07,14.58 -7.006,9.5 -10.51,23.05 -10.51,40.59 0,17.54 3.968,31.06 11.01,41.11 m 29.57,14.49 h 0.51 c 12.54,0 22.53,-4.496 29.53,-14.026 7.04,-9.512 10.54,-23.574 10.54,-40.584 0,-18.53 -3.5,-32.08 -10.54,-41.58 -7,-10 -16.99,-14.58 -30.04,-14.58 v -55.62 c 20.56,0 38.07,3.1 53.1,8.5 15.04,5.6 28.03,14.1 39.63,26.1 19.5,20.52 29.1,46.63 29.1,77.69 0,16.5 -2.6,31.626 -8.6,45.088 -5.5,13.512 -13.5,24.992 -24.5,35.042 -10.6,9.62 -23.56,17.1 -38.59,22.09 -14.54,5.04 -31.59,7.52 -50.14,7.52 z"/>
      </g>
      <g transform="matrix(0.32767833,0,0,-0.32767833,-133.57309,451.53579)" id="g3061" style="stroke-width:3.81471658">
        <path id="path3063" style="fill:#231f20;fill-opacity:1;fill-rule:evenodd;stroke:none;stroke-width:3.81471658" d="M 0,0 81.69,42.16 V -39.07 H 126.3 V -98.19 H 81.69 v -75.71 c 0,-9.5 0.98,-16 3.02,-19.5 2.54,-3.5 7.03,-5 14.02,-5 5.47,0 13.57,1.5 24.57,5 l 6,-56.6 c -10.5,-2 -20,-4 -28.6,-5.1 -8.46,-1 -17.49,-1.4 -26.99,-1.4 -19.57,0 -34.59,2.5 -45.15,7.5 -10,5 -17.52,13.5 -22.006,25 C 2.053,-211.9 0,-194.9 0,-173.4 v 75.21 h -30.06 v 59.12 H 0 Z"/>
      </g>
      <g transform="matrix(0.32767833,0,0,-0.32767833,37.54053,485.84371)" id="g3065" style="stroke-width:3.81471658">
        <path id="path3067" style="fill:#231f20;fill-opacity:1;fill-rule:evenodd;stroke:none;stroke-width:3.81471658" d="m 0,0 c 7.574,9.492 17.08,14.49 29.55,14.49 v 55.64 h -0.53 c -24,0 -45.59,-4.5 -63.57,-13.56 C -52.61,47.6 -67.22,34.02 -77.19,16.96 -87.24,0 -92.22,-19.54 -92.22,-41.11 c 0,-31.09 10.48,-57.15 31.07,-77.69 11.55,-11 24.55,-19.5 39.06,-25.1 14.635,-4.9 31.617,-8 51.11,-8 h 0.53 v 55.62 c -12.99,0 -22.513,4.58 -29.55,14.58 -6.978,9.5 -10.57,23.05 -10.57,40.59 0,17.54 3.592,31.06 10.57,41.11 m 29.55,14.49 h 0.53 c 13.05,0 22.55,-4.496 29.53,-14.026 7.02,-9.512 10.56,-23.574 10.56,-40.584 0,-18.53 -3.54,-32.08 -10.56,-41.58 -6.98,-10 -17.02,-14.58 -30.06,-14.58 v -55.62 c 20.54,0 38.08,3.1 53.16,8.5 15,5.6 28.09,14.1 39.59,26.1 19.5,20.52 29.5,46.63 29.5,77.69 0,16.5 -3,31.626 -8.4,45.088 -6.1,13.512 -14.1,24.992 -24.6,35.042 -11.1,9.62 -23.58,17.1 -38.63,22.09 -15,5.04 -31.54,7.52 -50.62,7.52 z"/>
      </g>
      <g transform="matrix(0.32767833,0,0,-0.32767833,144.69134,533.97965)" id="g3069" style="stroke-width:3.81471658">
        <path id="path3071" style="fill:#231f20;fill-opacity:1;fill-rule:evenodd;stroke:none;stroke-width:3.81471658" d="m 0,0 v 212.5 h 76.11 v -34.6 h 0.51 c 7.98,10.6 15.01,18.1 21.09,22.6 5.99,5 12.99,8.5 21.49,11.5 10,3.5 22.1,5.1 35.1,5.1 23.1,0 40.6,-7.1 52.6,-21.1 12,-14.1 18,-34.1 18,-60.7 V 0 h -82.1 v 116.7 c 0,13.1 -2,22.6 -6.6,28.1 -4.5,6.1 -12,9.1 -22,9.1 -11,0 -19.55,-4.1 -25.06,-12.5 -5,-8.6 -8.02,-21.6 -8.02,-39.1 L 81.12,0 Z"/>
      </g>
      <g transform="matrix(0.32767833,0,0,-0.32767833,239.39038,451.53579)" id="g3073" style="stroke-width:3.81471658">
        <path id="path3075" style="fill:#231f20;fill-opacity:1;fill-rule:evenodd;stroke:none;stroke-width:3.81471658" d="M 0,0 81.64,42.16 V -39.07 H 126.3 V -98.19 H 81.64 v -75.71 c 0,-9.5 1,-16 3.55,-19.5 1.94,-3.5 7.03,-5 13.57,-5 5.44,0 14.04,1.5 24.44,5 l 6.6,-56.6 c -11.1,-2 -20.6,-4 -29.1,-5.1 -8.48,-1 -17.54,-1.4 -27.06,-1.4 -19.52,0 -34.59,2.5 -44.64,7.5 -10.44,5 -18,13.5 -22.5,25 -4.021,12.1 -6.5,29.1 -6.5,50.6 v 75.21 h -30.13 v 59.12 H 0 Z"/>
      </g>
      <path id="path3077" style="fill:#231f20;fill-opacity:1;fill-rule:evenodd;stroke:none;stroke-width:1.25" d="m 100.78245,464.34801 h 26.86962 v 69.63164 h -26.86962 z"/>
      <g transform="matrix(0.32767833,0,0,-0.32767833,114.21726,451.04427)" id="g3079" style="stroke-width:3.81471658">
        <path id="path3081" style="fill:#ed1c24;fill-opacity:1;fill-rule:evenodd;stroke:none;stroke-width:3.81471658" d="m 0,0 c 23.48,0 42.54,18.52 42.54,42.07 0,23.56 -19.06,42.1 -42.54,42.1 -23.09,0 -42.17,-18.54 -42.17,-42.1 C -42.17,18.52 -23.09,0 0,0"/>
      </g>
      <g transform="matrix(0.32767833,0,0,-0.32767833,-49.294227,486.82674)" id="g3083" style="stroke-width:3.81471658">
        <path id="path3085" style="fill:#231f20;fill-opacity:1;fill-rule:evenodd;stroke:none;stroke-width:3.81471658" d="M 0,0 C 6.519,8.98 15.02,13 26.1,13.51 V 69.1 C 18.03,66.63 11.52,62.59 5.491,58.11 -0.5,53.55 -6.994,46.55 -13.54,37.57 h -0.97 V 68.64 H -90.7 V -308.7 h 82.178 v 185.4 c 8.522,-9 18.051,-15.5 28.072,-19.5 2.01,-0.6 4.5,-1.5 6.55,-2.1 v 57.16 c -10.56,0.49 -19.081,5 -25.074,13.05 -7.042,8.99 -10.549,21.01 -10.549,36.57 0,16.54 3.507,29.05 9.523,38.12 m 26.1,13.51 h 0.97 c 11.51,0 20.03,-4.53 25.55,-13.07 6.02,-9.022 9.04,-21.51 9.04,-38.56 0,-15.99 -3.02,-28.06 -8.55,-37.11 C 47.1,-83.69 39.1,-87.74 28.56,-87.74 H 26.1 v -57.16 c 8.49,-2.5 17.5,-4 28.03,-4 13.03,0 25.58,2.6 36.6,7.6 10.97,4.9 20.47,12 28.47,21.5 7.6,9.5 13.6,20.53 18.1,33.58 4,13.04 6,27.57 6,43.64 0,17.47 -2,32.984 -6,47.535 -4.5,14.575 -10,26.635 -18.1,36.615 -7.4,10.51 -17,18.01 -28,23.52 -11.02,5.53 -23.01,8.05 -36.55,8.05 -10.56,0 -20.06,-1.03 -28.1,-4.04 H 26.1 Z"/>
      </g>
      <path id="path3087" style="fill:#ed1c24;fill-opacity:1;fill-rule:nonzero;stroke:none;stroke-width:1.25" d="M -88.615627,551.41214 H -338.79803 v -3.67 h 250.182403 z"/>
      <path id="path3089" style="fill:#ed1c24;fill-opacity:1;fill-rule:nonzero;stroke:none;stroke-width:1.25" d="M 281.00553,551.41214 H -42.740661 v -3.67 H 281.00553 Z"/>
    </g>
  </g>
</svg>