<svg xmlns="http://www.w3.org/2000/svg" xmlns:xlink="http://www.w3.org/1999/xlink" width="524" height="572.519" viewBox="0 0 524 572.519"><defs><style>.a,.q{fill:none;}.b{clip-path:url(#a);}.c{fill:#f2f6fb;}.d{fill:#d8deed;}.e{fill:#e1e5f0;}.f{fill:#5cdb94;}.g{fill:#ff5645;}.h{fill:#ffcb3d;}.i{fill:#3abf7c;}.j{fill:#032444;}.k{fill:#05386b;}.l{fill:#444;opacity:0.177;}.m{fill:#482d1f;}.n{fill:#db9e75;}.o{fill:#8c2a00;opacity:0.2;}.p{fill:#474961;}.q{stroke:#fff;stroke-linecap:round;stroke-linejoin:round;stroke-width:10px;}.r{fill:#fff;}</style><clipPath id="a"><rect class="a" width="524" height="572.519"/></clipPath></defs><g class="b"><g transform="translate(286.994)"><rect class="c" width="236.549" height="177.607" rx="20"/><g transform="translate(14.156 120.535)"><path class="d" d="M901.482,343.21a21.628,21.628,0,1,1,21.41-21.627A21.52,21.52,0,0,1,901.482,343.21Zm.046-21.717a2.853,2.853,0,1,0-2.861-2.853A2.857,2.857,0,0,0,901.528,321.492Zm0,1.426a5.177,5.177,0,0,0-5.185,5.17h10.37A5.178,5.178,0,0,0,901.528,322.919Z" transform="translate(-880.071 -299.956)"/></g><g transform="translate(0 0)"><path class="e" d="M870.156,133.883a2.353,2.353,0,0,1,2.355-2.357h150.111a2.357,2.357,0,0,1,2.355,2.357v64.346a2.353,2.353,0,0,1-2.355,2.357H872.511a2.357,2.357,0,0,1-2.355-2.357Zm58.177,99.251h118.16a4.291,4.291,0,0,1,0,8.582H928.333a4.291,4.291,0,1,1,0-8.582Zm0,13.946h139.642a4.291,4.291,0,0,1,0,8.582H928.333a4.291,4.291,0,1,1,0-8.582Zm0-27.891h88.085a4.291,4.291,0,0,1,0,8.582H928.333a4.291,4.291,0,1,1,0-8.582ZM856,105.045A10.044,10.044,0,0,1,866.042,95h216.922a10.043,10.043,0,0,1,10.042,10.045v10.044H856Z" transform="translate(-856 -95)"/><g transform="translate(179.729 90.479)"><path class="f" d="M1169.16,248.849h27.9a7.553,7.553,0,1,1,0,15.107h-27.9a7.553,7.553,0,0,1,0-15.107Z" transform="translate(-1161.607 -248.849)"/></g></g><circle class="g" cx="4.338" cy="4.338" r="4.338" transform="translate(9.133 5.935)"/><circle class="h" cx="4.338" cy="4.338" r="4.338" transform="translate(23.29 5.935)"/><circle class="i" cx="4.338" cy="4.338" r="4.338" transform="translate(37.903 5.935)"/></g><g transform="translate(319.046 265.235)"><path class="d" d="M1128.393,706.905V548.588c0-1.411-24.406-2.588-53.752-2.588h-6.116c-29.288,0-53.753,1.176-53.753,2.588V707.023c0,1.411,24.406,2.588,53.753,2.588h6.116C1103.928,709.669,1128.393,708.434,1128.393,706.905Z" transform="translate(-953.449 -546)"/><path class="d" d="M911.9,975.192l.235.118a2.545,2.545,0,0,0,3.411-.823l68.867-126.5a2.43,2.43,0,0,0-1.117-3.293l-.235-.118a2.545,2.545,0,0,0-3.411.823L962.59,876.685q-16.673,30.7-33.4,61.339l-18.408,33.757A2.581,2.581,0,0,0,911.9,975.192Z" transform="translate(-910.5 -668.849)"/><path class="d" d="M1088.794,841.3H927.418a2.662,2.662,0,0,0-2.646,2.588v.294a2.623,2.623,0,0,0,2.646,2.588h161.493a2.662,2.662,0,0,0,2.646-2.588v-.294A2.69,2.69,0,0,0,1088.794,841.3Z" transform="translate(-916.379 -667.633)"/><path class="d" d="M1187.608,971.763,1169.2,938.005q-16.673-30.7-33.4-61.339l-17.055-31.287a2.491,2.491,0,0,0-3.411-.823l-.235.118a2.446,2.446,0,0,0-1.117,3.293l68.867,126.5a2.491,2.491,0,0,0,3.411.823l.235-.118A2.581,2.581,0,0,0,1187.608,971.763Z" transform="translate(-994.198 -668.831)"/></g><g transform="translate(285.987 363.354)"><path class="f" d="M856.794,1059.476h92.459a2.507,2.507,0,0,1,0,5.013H856.794a2.507,2.507,0,0,1,0-5.013Zm103.706,0h58.457a2.507,2.507,0,0,1,0,5.013H960.5a2.507,2.507,0,0,1,0-5.013Z" transform="translate(-854.287 -855.619)"/><path class="j" d="M1019.84,1035.177H962.157l4.625-30.425h41.107Zm-67.5.538a2.494,2.494,0,0,0-1.551-.538H858.33a2.465,2.465,0,0,0-.27.015,6.513,6.513,0,0,1-.041-.924,11.423,11.423,0,0,1,.192-1.278c.728-2.661,1.609-4.429,4.188-6a72.135,72.135,0,0,1,7.953-4.208c10.115-4.673,13.571-4.614,20.222-8.9a53.736,53.736,0,0,0,7.647-6.108,81.807,81.807,0,0,1,10.218-7.29l40.58.122Z" transform="translate(-855.824 -831.32)"/><path class="k" d="M1020.954,785.775c-.093,27.253-1.03,63.457-1.353,75.911-.056,1.734.17,6.428-3.23,9.387a12.151,12.151,0,0,1-3.74,1.99c-1.417.612-7.764,2.449-20.458,3.469a20.169,20.169,0,0,1-2.494.051c-13.091-.459-16.321-1.276-21.365-2.7a8.339,8.339,0,0,1-6.12-7.143c-1.587-14.846-5.95-55.3-6.29-58.874-.453-4.541-.85-9.693-1.19-15.561l-.18-2.746-15.683-6.182c6.55,25.073,12.9,51.041,18.584,76.859a9.716,9.716,0,0,1-.68,6.8c-2.72,5.113-9.8,4.849-26.748,6.853-19.948,2.372-28.278,4.85-32.812-.211a8.807,8.807,0,0,1-2.21-4.112c-4.137-20.506-24.651-80.021-32.641-122.72,0-.106-.057-.158-.057-.264a24.256,24.256,0,0,1,21.251-28.466c4.7-.58,8.954-1.139,13.658-1.718a26.468,26.468,0,0,1,4.254-.151l70.215-1.218c41.644-.362,35.91-5.2,48.932.8q13.022,5.992,17.732,34.113Q1040.014,771.316,1020.954,785.775Z" transform="translate(-857.412 -712.841)"/><path class="l" d="M1048.879,785.721q.007-2.136.007-4.193c0-10.611.057-19.744.17-25.611.113-4.642.963-30.151-10.031-35.457a35.6,35.6,0,0,0-3.853-1.479,56.345,56.345,0,0,0-19.664-2.755c-6.63.255-16.6.663-24.822,7.04-11.334,8.826-11.05,22.754-10.937,25l2.712,41.319-15.675-6.177c-4.367-16.717-8.82-33.035-13.219-48.645-3.005-10.624-13.051-17.977-24.07-18.522l70.019-1.214c41.644-.362,35.91-5.2,48.932.8q13.022,5.992,17.733,34.113Q1067.866,771.276,1048.879,785.721Z" transform="translate(-885.266 -712.841)"/></g><path class="f" d="M1010.744,533.419q1.023-.441,2.092-.784l12.094-4.038q1.051-.191,2.093-.335c.953-1.094,2.895-2.021,6.261-3.055,11.955-3.735,27.214,2.476,32.648,16.394,4.736,12.129,11.028,25.829,10.442,26.009a29.386,29.386,0,0,1-6.633,3.219q8.161,30.8,8.795,41.237c.84,13.857-3.82,23.145-19.616,24.323s-37.779,2.835-40.362-1.76q-2.492-4.431-23.42-54.726-7.824,2.533-8.172,2.593c-.728.127-3.2-8.028-4.815-20.922-1.849-14.8,7.125-27.137,22-29.661A8.275,8.275,0,0,1,1010.744,533.419Z" transform="translate(-620.868 -271.762)"/><path class="l" d="M1010.78,538.786c-14.792,6.136-22.136,27.147-17.211,42.685l1.609,3.76q-7.863,2.545-8.211,2.605c-.728.126-3.2-8.028-4.815-20.922-1.849-14.8,7.125-27.137,22-29.661A8.277,8.277,0,0,1,1010.78,538.786Z" transform="translate(-620.868 -277.102)"/><path class="m" d="M989.425,541.15s-1.077,4.233,4.647,3.063,7.367-1.727,7.367-1.727l-1.473-3.843Z" transform="translate(-623.93 -277.735)"/><path class="n" d="M969.952,498.4l10.54,49.208,2.5-13.358q19.811,3.881,32.246,3.88h.133c-1.867,7.144-6.293,38.144-13.179,50.139-8.7,15.163-13.785,16.827-26.639,15.588a20.485,20.485,0,0,1-3.729-.7,16.383,16.383,0,0,0,1.738.462l-66.5,1.022-.005.018-.2-.015-.257,0a1.171,1.171,0,0,1-.355-.049l-27.209-2A15.292,15.292,0,0,1,868,596.627l-3.058-4.011a7,7,0,0,1,4.577-11.167l8.129-1.158a58.817,58.817,0,0,1,16.8.031l16.784,2.454c12.743-4.005,29.749-9.265,33.994-10.171l-5.272-24.465,6.232-2.446q2.934,6.7,5.523,12.585c-1.955-18.644-1.735-39.234-4.086-57.524l-5.893.126c-3.513,1.393-10.88,3.732-11.674-1.225,0,0,9.747-3.955,16.6-6.851l.51-.445a3.529,3.529,0,0,1,1.417-.78.726.726,0,0,1,.34-.056l.376-.054a13.173,13.173,0,0,1-1.985.031c-4.74-.208-10.55-8.6-13.345-20.825a26.911,26.911,0,0,1-.493-2.977l-.715-9.947a12.242,12.242,0,0,1,1.192-6.421,4.827,4.827,0,0,1,.289-.584,19.087,19.087,0,0,1,1.047-1.656,15.683,15.683,0,0,1,4.844-4.386,26.563,26.563,0,0,1,12-2.6c.4.021,1.657.081,3.427.152a24.447,24.447,0,0,0,4.914.248,1.725,1.725,0,0,1,1.734,1.584l.7,14.253a2.35,2.35,0,0,0,.083.446q8.56-3.481,12.256,3.973c3.7,7.453.349,5.84-1.294,7.827a8.652,8.652,0,0,1-3.651,2.438,1.222,1.222,0,0,0-.54.294l4.438.042.785,3.063.289,3.889,2.916,14.23A80.025,80.025,0,0,1,969.952,498.4Zm-9.911-8.467-.333-1.6-.425.177c-4.717,1.971-4.444,1.836-4.774,1.976-.706.217-1.394.39-2.048.527l5.079-.72Zm46.347,284.98h-37.24l.8-12.3c4.576,1.274,8.168,2.022,20.474,2.454a20.165,20.165,0,0,0,2.494-.051,130.721,130.721,0,0,0,13.99-1.8l3.243,11.537Zm-56.728-14.849,1.622,10.54H910.487l2.691-5.973c4.565-.522,10.3-1.4,17.573-2.267C939.357,761.35,945.42,760.917,949.659,760.068Z" transform="translate(-572.098 -237.969)"/><path class="m" d="M1030.878,520.09l-2.142.295-1.2.173-.122-.034-.336-1.61,6.083-2.577A11.848,11.848,0,0,1,1030.878,520.09Z" transform="translate(-639.473 -268.547)"/><path class="m" d="M987.68,486.434c.2.989.571,2.579.184,3.339-.63,1.229-2.844-1.265-2.672-3.181.1-.791.466-1.158.917-1.2A1.373,1.373,0,0,1,987.68,486.434Zm12.044-2.1c.2.989.571,2.579.183,3.339-.63,1.228-2.844-1.266-2.672-3.181.1-.792.466-1.159.917-1.2A1.374,1.374,0,0,1,999.724,484.336Z" transform="translate(-622.215 -254.93)"/><path class="m" d="M994.147,488.053l-.022,5.593a1.286,1.286,0,0,0,1.3,1.223,15.409,15.409,0,0,0,1.647-.132c.448-.048.756-.079,1.119-.111a.557.557,0,1,0-.1-1.11c-.372.033-.686.064-1.141.112a15.093,15.093,0,0,1-1.582.128.237.237,0,0,1-.115-.159l.025-5.543a.559.559,0,0,0-.564-.558A.565.565,0,0,0,994.147,488.053Z" transform="translate(-625.899 -256.668)"/><path class="m" d="M1000.223,503.842c.386-.145,1.311-.616,1.374-1.18-.01-.111.032-.282-.03-.333-.251-.258-.964.027-1.966.281a24.6,24.6,0,0,1-3.306.564,7.947,7.947,0,0,0,.9,1.153C997.875,504.938,999.622,504.117,1000.223,503.842Z" transform="translate(-626.793 -262.735)"/><path class="m" d="M1002.328,475.589l1.878-.628a.837.837,0,1,1,.547,1.582l-1.878.628-1.416.473a7.853,7.853,0,0,1,.318,1.621,7.949,7.949,0,0,1-7.315,8.568,8.048,8.048,0,0,1-8.4-5.556l-.992.153-.819.126a8.045,8.045,0,1,1-8.743-7.575,8.039,8.039,0,0,1,8.5,5.922l.8-.124.265,1.651c-.974-.709-.977-.733-.98-.756l-.889-.646.806-.125q.06.232.106.47a.8.8,0,0,1,.692-.593l.933-.144a7.95,7.95,0,0,1,7.316-8.561,8.086,8.086,0,0,1,7.732,4.027Zm-18.858,7.091a.848.848,0,0,1-.973-.707.838.838,0,0,1,.709-.944l1.6-.248.933-.144v.008a7.808,7.808,0,0,0,.323,1.634l-.992.153Zm1.6-.248a.8.8,0,0,1-.855-.373Zm9.239,3.738a6.24,6.24,0,1,0-6.876-5.671A6.271,6.271,0,0,0,994.315,486.17Zm-18.653-9.523a6.24,6.24,0,1,0,6.876,5.671q-.016-.174-.041-.345A6.324,6.324,0,0,0,975.662,476.647Z" transform="translate(-615.207 -250.304)"/><path class="o" d="M973.51,676.181l-66.5,1.022-.006.018-.2-.015-.257,0a1.168,1.168,0,0,1-.354-.049l-27.209-2a15.293,15.293,0,0,1-11.039-5.979l-3.058-4.011a7,7,0,0,1,4.577-11.167l8.129-1.158a58.811,58.811,0,0,1,16.8.031l16.784,2.454c12.744-4.005,29.749-9.265,33.995-10.171L939.9,620.7l6.232-2.446q3.106,7.091,5.825,13.271.474,3.677,1.11,7.316C957.249,660.719,962.1,673.8,973.51,676.181Z" transform="translate(-572.075 -310.525)"/><path class="m" d="M1061.4,613.733a.833.833,0,0,1,.573-1.039.853.853,0,0,1,1.057.563l5.61,18.6a.833.833,0,0,1-.573,1.039.852.852,0,0,1-1.056-.564Zm35.506-9.089a.836.836,0,1,1,.013-1.671,20.409,20.409,0,0,0,6.663-1.016.854.854,0,0,1,1.079.522.832.832,0,0,1-.531,1.06A22.134,22.134,0,0,1,1096.906,604.644Z" transform="translate(-653.595 -303.796)"/><path d="M1016.785,462.052c.861-.246,3.41-.8,4.975-2.688A7.5,7.5,0,0,0,1023,451.6c-1.094-2.7-4.006-4.744-6.711-4.455a6.464,6.464,0,0,0-2.857,1.14,8.852,8.852,0,0,0-2.607,3.3l-.45,1.294c-.225-.289-.44-.559-.645-.808-4.337-3.988-6.841-6.755-11.235-10.739-2.208.749-16.389,5.711-17.455,5.243,0-5.659,2.105-7.481,2.461-7.959a18.258,18.258,0,0,1,5.148-4.8,26.572,26.572,0,0,1,12-2.6c.4.022,1.657.081,3.427.153.513.012,1.026.023,1.652.026,1.478-.015,2.616,0,3.3,0,8.63-.183,11.882-1.357,16.375.549.262.119.631.29,1.067.525a21.18,21.18,0,0,1,.993-2.151c9.5-18.094,21.041-14,21.041-13.931s8.744.067,10.98,8.832c.223.871,1.791,7.023-.716,12.095-3.362,6.637-13.391,10.723-24.8,7.934a28.706,28.706,0,0,1-.054,4.358c-.623,6.427-4.187,10.48-5.229,12.191a48.657,48.657,0,0,1-5.151,6.887,17.8,17.8,0,0,1-5.855-5.27Z" transform="translate(-620.511 -227.191)"/><g transform="translate(282.213 345.084)"><path class="p" d="M848.962,688.216c6.4-6.25,19.455-11.149,41.033,1.2,3.29,1.821,2.09,7.547-1.558,7.536l-37.594-.253C848.017,696.716,846.829,690.319,848.962,688.216Z" transform="translate(-847.87 -681.774)"/></g><g transform="translate(0 62.927)"><path class="c" d="M654.445,384.759H474.721c-7.057,0-12.821-5.225-12.821-11.622V265.822c0-6.4,5.763-11.622,12.821-11.622H654.445c7.057,0,12.821,5.225,12.821,11.622V373.084C667.266,379.534,661.5,384.759,654.445,384.759Z" transform="translate(-406.677 -223.501)"/><path class="e" d="M462,244.765A11.765,11.765,0,0,1,473.763,233H655.485a11.766,11.766,0,0,1,11.763,11.765v13.523H462Z" transform="translate(-406.718 -214.769)"/><g transform="translate(83.511 72.337)"><path class="e" d="M513.382,343.819h22.642a3.382,3.382,0,0,1,0,6.763H513.382a3.382,3.382,0,0,1,0-6.763Zm0,37.639h22.642a3.382,3.382,0,0,1,0,6.763H513.382a3.382,3.382,0,1,1,0-6.763Zm34.7-37.639h22.642a3.382,3.382,0,1,1,0,6.763H548.08a3.382,3.382,0,1,1,0-6.763Zm0,37.639h22.642a3.382,3.382,0,1,1,0,6.763H548.08a3.382,3.382,0,1,1,0-6.763Zm34.7-37.639H605.42a3.382,3.382,0,0,1,0,6.763H582.778a3.382,3.382,0,0,1,0-6.763Zm0,37.639H605.42a3.382,3.382,0,0,1,0,6.763H582.778a3.382,3.382,0,0,1,0-6.763ZM513.382,325h42.049a3.382,3.382,0,0,1,0,6.763H513.382a3.382,3.382,0,1,1,0-6.763Zm95.273,0H656a3.382,3.382,0,1,1,0,6.763H608.654a3.382,3.382,0,1,1,0-6.763Zm0,37.639H656a3.382,3.382,0,1,1,0,6.763H608.654a3.382,3.382,0,1,1,0-6.763Zm-41.167,0h8.527a3.382,3.382,0,1,1,0,6.763h-8.527a3.382,3.382,0,1,1,0-6.763ZM588.071,325H596.6a3.382,3.382,0,0,1,0,6.763h-8.527a3.382,3.382,0,0,1,0-6.763Zm29.405,18.819H656a3.382,3.382,0,1,1,0,6.763H617.476a3.382,3.382,0,0,1,0-6.763Z" transform="translate(-510 -325)"/><path class="f" d="M513.382,389h42.049a3.382,3.382,0,1,1,0,6.763H513.382a3.382,3.382,0,1,1,0-6.763Zm74.689,0H596.6a3.382,3.382,0,1,1,0,6.763h-8.527a3.382,3.382,0,1,1,0-6.763Z" transform="translate(-510 -351.361)"/><path class="k" d="M605.382,325h8.528a3.382,3.382,0,0,1,0,6.763h-8.528a3.382,3.382,0,0,1,0-6.763Zm49.989,56.458h38.521a3.382,3.382,0,0,1,0,6.763H655.37a3.382,3.382,0,0,1,0-6.763Z" transform="translate(-547.895 -325)"/></g><rect class="f" width="97.037" height="60.575" rx="20"/><path class="q" d="M407.607,230,388,245.776l20.584,11.277" transform="translate(-376.238 -213.533)"/><path class="q" d="M475.9,257.053l19.679-13.5L475,230" transform="translate(-412.073 -213.533)"/><path class="q" d="M441,259.783l8.958-39.409" transform="translate(-398.068 -209.568)"/></g><g transform="translate(98.507 359.919)"><path class="d" d="M543.733,836.393c.1-.007.2-.011.294-.011h5.293a4.117,4.117,0,1,1,0,8.233h-5.293c-.1,0-.2,0-.294-.011v70.877a4.117,4.117,0,1,1-8.233,0V711.411a5.349,5.349,0,0,1,5-4.411H890.42a4.117,4.117,0,1,1,0,8.233H543.733Z" transform="translate(-535.5 -707)"/></g><g transform="translate(143.144 248.768)"><g transform="translate(0)"><path class="p" d="M656.257,620.331l5.656-22.82H619.457c-4.411,0-8.058-3.352-8.058-7.41V525.469c-.058-4.117,3.529-7.469,8-7.469H748.6c4.411,0,8.057,3.352,8.057,7.41V590.1c0,4.058-3.646,7.41-8.057,7.41H696.866l-2.335,22.82h15.318a4.176,4.176,0,0,1,0,8.351H644.276a4.154,4.154,0,0,1-4.176-4.176,4.082,4.082,0,0,1,4.176-4.176Z" transform="translate(-611.399 -518)"/><path class="r" d="M756.875,624.919l.174,39.51h-4.216Z" transform="translate(-669.655 -562.04)"/></g></g></g></svg>