<svg xmlns="http://www.w3.org/2000/svg" xmlns:xlink="http://www.w3.org/1999/xlink" width="132" height="132" viewBox="0 0 132 132"><defs><style>.a,.c{fill:none;}.b{clip-path:url(#a);}.c{stroke:#fff;stroke-linejoin:round;stroke-width:4px;}</style><clipPath id="a"><rect class="a" width="132" height="132"/></clipPath></defs><g class="b"><path class="c" d="M92.826,98.043H6.565A5.564,5.564,0,0,1,1,92.478V14.565A5.564,5.564,0,0,1,6.565,9h64" transform="translate(1 15.261)"/><g transform="translate(40.957 113.304)"><line class="c" x2="50.087" transform="translate(0 16.696)"/><line class="c" y2="16.696" transform="translate(8.348)"/><line class="c" y2="16.696" transform="translate(41.739)"/></g><line class="c" x2="33.391" transform="translate(2 96.609)"/><g transform="translate(35.391 35.391)"><path class="c" d="M79.783,51.957V40.826H70.792a24.884,24.884,0,0,0-3.217-7.75l6.361-6.361-7.869-7.872-6.361,6.364a24.884,24.884,0,0,0-7.75-3.217V13H40.826v8.991a24.884,24.884,0,0,0-7.75,3.217l-6.361-6.364-7.869,7.872,6.361,6.361a24.884,24.884,0,0,0-3.217,7.75H13v11.13h8.991a24.884,24.884,0,0,0,3.217,7.75l-6.361,6.361,7.869,7.869,6.361-6.361a24.884,24.884,0,0,0,7.75,3.217v8.991h11.13V70.792a24.884,24.884,0,0,0,7.75-3.217l6.361,6.361,7.869-7.869-6.361-6.361a24.884,24.884,0,0,0,3.217-7.75Z" transform="translate(-13 -13)"/><circle class="c" cx="8.348" cy="8.348" r="8.348" transform="translate(25.043 25.043)"/><path class="c" d="M65.053,65.053h0a5.305,5.305,0,0,1-7.5,0L36,43.507,43.507,36,65.053,57.549A5.305,5.305,0,0,1,65.053,65.053Z" transform="translate(28 28)"/><line class="c" x1="11.13" y1="11.13" transform="translate(55.652 55.652)"/><line class="c" y1="8.348" x2="8.348" transform="translate(72.348 72.348)"/></g><rect class="c" width="50.087" height="22.261" rx="2" transform="translate(79.913 2)"/><path class="c" d="M46.348,9v8.348L38,25.7" transform="translate(66.957 15.261)"/><line class="c" x2="5.565" transform="translate(88.261 13.13)"/><line class="c" x2="22.261" transform="translate(99.391 13.13)"/><path class="c" d="M46,92.7h2.783V12" transform="translate(81.217 20.609)"/><line class="c" x1="13.913" transform="translate(116.087 96.609)"/><path class="c" d="M16.13,13H10.565A5.564,5.564,0,0,0,5,18.565V24.13" transform="translate(8.13 22.391)"/><line class="c" y2="5.565" transform="translate(13.13 52.087)"/></g></svg>