<svg xmlns="http://www.w3.org/2000/svg" xmlns:xlink="http://www.w3.org/1999/xlink" width="132.828" height="132.828" viewBox="0 0 132.828 132.828"><defs><style>.a,.c{fill:none;}.b{clip-path:url(#a);}.c{stroke:#fff;stroke-linejoin:round;stroke-width:4px;}</style><clipPath id="a"><rect class="a" width="132.828" height="132.828"/></clipPath></defs><g class="b"><g transform="translate(15.913 36.22)"><path class="c" d="M6,65.87V85.348a5.564,5.564,0,0,0,5.565,5.565h89.043a5.564,5.564,0,0,0,5.565-5.565V18.565A5.564,5.564,0,0,0,100.609,13H95.043" transform="translate(-6 -13)"/><line class="c" x2="50.087" transform="translate(25.043 94.609)"/><line class="c" y2="13.913" transform="translate(33.391 80.696)"/><line class="c" y2="16.696" transform="translate(66.783 77.913)"/></g><path class="c" d="M98.391,51.087V73.348a5.564,5.564,0,0,1-5.565,5.565H76.13v16.7l-16.7-16.7H6.565A5.564,5.564,0,0,1,1,73.348V6.565A5.564,5.564,0,0,1,6.565,1H92.826a5.564,5.564,0,0,1,5.565,5.565V12.13" transform="translate(1 1.828)"/><g transform="translate(74.348 2.828)"><rect class="c" width="67.461" height="11.243" transform="translate(0 47.702) rotate(-45)"/><path class="c" d="M35.348,26.348H27V18" transform="translate(-27 29.304)"/></g><g transform="translate(13.13 13.959)"><path class="c" d="M74.565,32.826H62.792a24.884,24.884,0,0,0-3.217-7.75l6.361-6.361-7.869-7.872-6.361,6.364a24.884,24.884,0,0,0-7.75-3.217V5H32.826v8.991a24.884,24.884,0,0,0-7.75,3.217l-6.361-6.364-7.869,7.872,6.361,6.361a24.884,24.884,0,0,0-3.217,7.75H5v5.565" transform="translate(-5 -5)"/><path class="c" d="M30.7,22.348a8.348,8.348,0,0,0-16.7,0" transform="translate(11.043 11.043)"/></g><line class="c" x1="44.522" transform="translate(21.478 58.481)"/><line class="c" x1="5.565" transform="translate(10.348 58.481)"/><line class="c" x2="50.087" transform="translate(15.913 97.437)"/><line class="c" x2="30.609" transform="translate(85.478 97.437)"/></g></svg>