<?xml version="1.0" encoding="UTF-8" standalone="no"?>
<svg xmlns:dc="http://purl.org/dc/elements/1.1/" xmlns:cc="http://creativecommons.org/ns#" xmlns:rdf="http://www.w3.org/1999/02/22-rdf-syntax-ns#" xmlns:svg="http://www.w3.org/2000/svg" xmlns="http://www.w3.org/2000/svg" viewBox="0 0 1004.1891 210.63452" height="210.63452" width="1004.1891" xml:space="preserve" id="svg2" version="1.1"><metadata id="metadata8"><rdf:RDF><cc:Work rdf:about=""><dc:format>image/svg+xml</dc:format><dc:type rdf:resource="http://purl.org/dc/dcmitype/StillImage"/><dc:title/></cc:Work></rdf:RDF></metadata><defs id="defs6"><clipPath id="clipPath18" clipPathUnits="userSpaceOnUse"><path id="path16" d="M 0,595.28 H 841.89 V 0 H 0 Z"/></clipPath></defs><g transform="matrix(1.3333333,0,0,-1.3333333,-59.164932,502.17065)" id="g10"><g id="g12"><g clip-path="url(#clipPath18)" id="g14"><g transform="translate(96.4287,314.1543)" id="g20"><path id="path22" style="fill:#3674c3;fill-opacity:1;fill-rule:nonzero;stroke:none" d="m 0,0 c 0,9.642 -6.167,16.842 -15.552,16.842 -9.247,0 -15.681,-7.2 -15.681,-16.842 0,-9.634 6.434,-16.834 15.681,-16.834 C -6.167,-16.834 0,-9.634 0,0 m 20.952,0 c 0,-20.562 -15.537,-34.963 -36.504,-34.963 -20.952,0 -36.503,14.401 -36.503,34.963 0,20.569 15.551,34.971 36.503,34.971 C 5.415,34.971 20.952,20.569 20.952,0"/></g><g transform="translate(161.4717,330.3535)" id="g24"><path id="path26" style="fill:#3674c3;fill-opacity:1;fill-rule:nonzero;stroke:none" d="M 0,0 V -49.488 H -20.955 V 0 h -15.784 v 17.098 h 15.784 v 8.994 c 0,11.828 6.817,19.021 20.706,19.021 h 27.72 V 29.433 H 8.495 C 2.328,29.433 0,26.742 0,21.212 V 17.098 H 21.982 V 0 Z"/></g><g transform="translate(226.7783,330.3535)" id="g28"><path id="path30" style="fill:#3674c3;fill-opacity:1;fill-rule:nonzero;stroke:none" d="M 0,0 V -49.488 H -20.951 V 0 h -15.805 v 17.098 h 15.805 v 8.994 c 0,11.828 6.803,19.021 20.698,19.021 H 27.45 V 29.433 H 8.484 C 2.311,29.433 0,26.742 0,21.212 V 17.098 H 21.973 V 0 Z"/></g><path id="path32" style="fill:#3674c3;fill-opacity:1;fill-rule:nonzero;stroke:none" d="m 261.355,347.451 h 20.952 v -66.586 h -20.952 z m -0.513,29.177 h 21.849 v -20.562 h -21.849 z"/><g transform="translate(331.0225,330.9961)" id="g34"><path id="path36" style="fill:#3674c3;fill-opacity:1;fill-rule:nonzero;stroke:none" d="m 0,0 c -8.748,0 -14.265,-7.2 -14.265,-16.842 0,-9.634 5.654,-16.965 14.388,-16.965 8.241,0 11.961,5.272 12.602,6.811 h 20.051 c -0.643,-9.254 -9.63,-24.809 -33.145,-24.809 -19.55,0 -34.855,13.892 -34.855,34.963 0,21.082 15.168,34.971 34.594,34.971 23.516,0 32.383,-15.295 33.406,-24.946 H 12.471 C 11.441,-5.14 8.23,0 0,0"/></g><g transform="translate(393.502,322.8955)" id="g38"><path id="path40" style="fill:#3674c3;fill-opacity:1;fill-rule:nonzero;stroke:none" d="M 0,0 H 29.307 C 27.375,7.071 22.234,11.062 14.669,11.062 6.937,11.062 1.935,6.814 0,0 m 50.271,-9.113 v -3.608 H -0.39 c 1.027,-8.358 7.201,-14.662 16.458,-14.662 8.231,0 11.69,3.735 12.854,5.154 h 20.707 c -1.031,-7.854 -10.549,-21.475 -33.561,-21.475 -22.752,0 -37.005,14.785 -37.005,34.963 0,21.082 14.625,34.97 35.606,34.97 21.19,0 35.602,-13.627 35.602,-35.342"/></g><g transform="translate(477.5703,280.8652)" id="g42"><path id="path44" style="fill:#3674c3;fill-opacity:1;fill-rule:nonzero;stroke:none" d="M 0,0 H -20.832 V 66.586 H 0 V 56.559 C 2.447,60.672 9.645,68 21.209,68 32.396,68 40.482,62.859 44.725,54.115 47.945,59.772 54.881,68 68.904,68 85.471,68 95.906,56.168 95.906,39.337 V 0 h -20.98 v 35.083 c 0,8.878 -5.133,14.405 -13.36,14.405 -8.214,0 -13.621,-5.654 -13.621,-14.405 V 0 H 26.988 v 35.083 c 0,8.878 -5.133,14.405 -13.363,14.405 C 5.393,49.488 0,43.834 0,35.083 Z"/></g><g transform="translate(622.8281,330.9961)" id="g46"><path id="path48" style="fill:#3674c3;fill-opacity:1;fill-rule:nonzero;stroke:none" d="m 0,0 c -9.25,0 -15.428,-7.2 -15.428,-16.842 0,-9.634 6.178,-16.834 15.428,-16.834 9.246,0 15.16,7.2 15.16,16.834 C 15.16,-7.2 9.246,0 0,0 M 15.16,-40.363 C 14,-42.551 7.699,-51.537 -6.305,-51.537 c -16.715,0 -30.199,13.1 -30.199,34.695 0,21.47 13.484,34.584 30.33,34.584 13.49,0 19.926,-8.353 21.07,-10.541 v 9.254 H 35.732 V -50.131 H 15.16 Z"/></g><g transform="translate(696.6152,280.8652)" id="g50"><path id="path52" style="fill:#3674c3;fill-opacity:1;fill-rule:nonzero;stroke:none" d="M 0,0 H -20.826 V 66.586 H 0 V 56.168 c 1.4,3.091 6.16,10.545 20.186,10.545 H 34.443 V 46.145 H 16.184 C 4.375,46.145 0,41.781 0,32.523 Z"/></g><g transform="translate(797.5156,280.8652)" id="g54"><path id="path56" style="fill:#3674c3;fill-opacity:1;fill-rule:nonzero;stroke:none" d="m 0,0 h -20.822 c -15.549,0 -22.739,7.324 -22.739,21.209 v 28.022 h -16.332 v 17.355 h 16.332 V 91.27 h 20.928 V 66.586 H 0 V 49.231 H -22.633 V 28.536 c 0,-7.194 2.194,-10.154 10.031,-10.154 H 0 Z"/></g><g transform="translate(64.0322,230.7402)" id="g58"><path id="path60" style="fill:#3674c3;fill-opacity:1;fill-rule:nonzero;stroke:none" d="M 0,0 -4.029,10.822 -8.066,0 Z m 2.292,-6.152 h -12.644 l -1.979,-5.325 h -7.327 L -7.88,19.307 H 0.134 L 11.993,-11.477 H 4.286 Z"/></g><g transform="translate(98.7207,243.5986)" id="g62"><path id="path64" style="fill:#3674c3;fill-opacity:1;fill-rule:nonzero;stroke:none" d="m 0,0 v -6.927 h 7.546 c 2.915,0 4.236,1.34 4.236,3.471 C 11.782,-1.171 10.349,0 7.546,0 Z M -7.31,6.406 H 8.277 c 6.969,0 11.044,-3.379 11.044,-9.827 0,-6.41 -4.075,-9.923 -11.044,-9.923 H 0 v -10.991 h -7.31 z"/></g><path id="path66" style="fill:#3674c3;fill-opacity:1;fill-rule:nonzero;stroke:none" d="m 123.108,251.141 h 7.057 v -31.877 h -7.057 z"/><g transform="translate(146.4971,236.1484)" id="g68"><path id="path70" style="fill:#3674c3;fill-opacity:1;fill-rule:nonzero;stroke:none" d="m 0,0 c -2.637,0 -4.191,-2.159 -4.191,-5.672 0,-3.513 1.554,-5.721 4.191,-5.721 2.599,0 4.11,2.208 4.11,5.721 C 4.11,-2.159 2.599,0 0,0 m 4.11,-13.938 c -0.351,-0.873 -2.113,-3.431 -6.11,-3.431 -5.359,0 -9.266,4.377 -9.266,11.697 0,7.272 3.946,11.649 9.315,11.649 4.001,0 5.643,-2.553 5.977,-3.248 v 2.812 h 6.972 V -16.885 H 4.11 Z"/></g><g transform="translate(173.3457,236.1904)" id="g72"><path id="path74" style="fill:#3674c3;fill-opacity:1;fill-rule:nonzero;stroke:none" d="m 0,0 c -2.405,0 -3.893,-2.384 -3.893,-5.714 0,-3.337 1.488,-5.756 3.928,-5.756 2.261,0 3.126,1.6 3.355,2.166 h 6.712 c -0.229,-3.122 -2.912,-8.185 -10.218,-8.185 -6.248,0 -10.844,4.676 -10.844,11.775 0,7.106 4.648,11.782 10.745,11.782 7.089,0 10.088,-4.94 10.317,-8.185 H 3.39 C 3.126,-1.513 2.349,0 0,0"/></g><g transform="translate(193.7988,233.4199)" id="g76"><path id="path78" style="fill:#3674c3;fill-opacity:1;fill-rule:nonzero;stroke:none" d="M 0,0 H 8.083 C 7.7,2.384 6.266,3.769 4.058,3.769 1.771,3.769 0.33,2.299 0,0 M 15.104,-2.943 V -4.156 H -0.088 c 0.172,-2.944 1.859,-4.979 4.627,-4.979 2.285,0 3.161,1.167 3.498,1.646 h 6.938 c -0.334,-2.775 -3.032,-7.23 -10.436,-7.23 -7.186,0 -11.512,4.846 -11.512,11.776 0,7.063 4.455,11.782 11.031,11.782 6.757,0 11.046,-4.592 11.046,-11.782"/></g><g transform="translate(234.8906,235.9297)" id="g80"><path id="path82" style="fill:#3674c3;fill-opacity:1;fill-rule:nonzero;stroke:none" d="M 0,0 V -16.666 H -7.008 V 0 h -5.249 v 5.76 h 5.249 v 3.037 c 0,3.98 2.3,6.414 6.973,6.414 H 9.223 V 9.916 H 2.852 C 0.78,9.916 0,9.058 0,7.152 V 5.76 H 6.624 V 0 Z"/></g><g transform="translate(260.0615,230.4766)" id="g84"><path id="path86" style="fill:#3674c3;fill-opacity:1;fill-rule:nonzero;stroke:none" d="m 0,0 c 0,3.291 -1.437,5.805 -4.374,5.805 -2.911,0 -4.37,-2.514 -4.37,-5.805 0,-3.337 1.41,-5.844 4.37,-5.844 C -1.437,-5.844 0,-3.337 0,0 m 7.046,0 c 0,-7.099 -4.711,-11.775 -11.42,-11.775 -6.673,0 -11.396,4.676 -11.396,11.775 0,7.105 4.723,11.782 11.396,11.782 6.709,0 11.42,-4.677 11.42,-11.782"/></g><g transform="translate(278.9424,219.2637)" id="g88"><path id="path90" style="fill:#3674c3;fill-opacity:1;fill-rule:nonzero;stroke:none" d="M 0,0 H -6.972 V 22.426 H 0 v -3.287 c 0.588,1.17 2.155,3.336 6.494,3.336 h 3.847 V 15.549 H 5.2 C 1.512,15.549 0,14.156 0,11.083 Z"/></g><path id="path92" style="fill:#3674c3;fill-opacity:1;fill-rule:nonzero;stroke:none" d="m 305.313,250.005 h 7.355 v -30.741 h -7.355 z"/><g transform="translate(329.8691,236.1904)" id="g94"><path id="path96" style="fill:#3674c3;fill-opacity:1;fill-rule:nonzero;stroke:none" d="m 0,0 c -2.764,0 -4.353,-2.384 -4.353,-5.714 0,-3.337 1.589,-5.713 4.353,-5.713 2.774,0 4.377,2.376 4.377,5.713 C 4.377,-2.384 2.774,0 0,0 m 4.377,-13.938 c -0.33,-0.827 -2.264,-3.473 -6.356,-3.473 -5.289,0 -9.445,4.331 -9.445,11.697 0,7.366 4.156,11.698 9.445,11.698 4.152,0 5.914,-2.644 6.257,-3.297 V 14.95 h 6.988 V -16.927 H 4.377 Z"/></g><g transform="translate(353.0078,233.4199)" id="g98"><path id="path100" style="fill:#3674c3;fill-opacity:1;fill-rule:nonzero;stroke:none" d="M 0,0 H 8.098 C 7.693,2.384 6.28,3.769 4.051,3.769 1.762,3.769 0.338,2.299 0,0 M 15.108,-2.943 V -4.156 H -0.099 c 0.173,-2.944 1.861,-4.979 4.645,-4.979 2.282,0 3.147,1.167 3.506,1.646 h 6.93 c -0.355,-2.775 -3.035,-7.23 -10.436,-7.23 -7.207,0 -11.515,4.846 -11.515,11.776 0,7.063 4.445,11.782 11.02,11.782 6.768,0 11.057,-4.592 11.057,-11.782"/></g><g transform="translate(383.0107,236.1484)" id="g102"><path id="path104" style="fill:#3674c3;fill-opacity:1;fill-rule:nonzero;stroke:none" d="m 0,0 c -2.627,0 -4.191,-2.159 -4.191,-5.672 0,-3.513 1.564,-5.721 4.191,-5.721 2.598,0 4.135,2.208 4.135,5.721 C 4.135,-2.159 2.598,0 0,0 m 4.135,-13.938 c -0.366,-0.873 -2.138,-3.431 -6.118,-3.431 -5.372,0 -9.265,4.377 -9.265,11.697 0,7.272 3.931,11.649 9.303,11.649 3.977,0 5.636,-2.553 5.981,-3.248 V 5.541 H 10.99 V -16.885 H 4.135 Z"/></g><g transform="translate(407.7139,227.8291)" id="g106"><path id="path108" style="fill:#3674c3;fill-opacity:1;fill-rule:nonzero;stroke:none" d="m 0,0 c -5.066,0.485 -8.843,2.56 -8.843,7.285 0,4.508 3.931,7.18 9.824,7.18 7.967,0 10.168,-4.107 10.52,-6.4 H 4.577 C 4.36,8.414 3.321,9.489 1.076,9.489 -0.83,9.489 -1.87,8.801 -1.87,7.634 -1.87,6.631 -1.044,6.02 0.545,5.854 L 2.886,5.64 c 6.418,-0.482 9.187,-2.729 9.187,-7.405 0,-4.553 -3.459,-7.412 -10.255,-7.412 -8.246,0 -10.759,4.504 -11.104,6.846 h 7.152 c 0.214,-0.479 1.174,-1.775 3.952,-1.775 2.064,0 3.234,0.689 3.234,1.856 0,1.174 -0.559,1.821 -2.426,1.997 z"/></g></g></g></g></svg>