<svg xmlns="http://www.w3.org/2000/svg" xmlns:xlink="http://www.w3.org/1999/xlink" width="132" height="132" viewBox="0 0 132 132"><defs><style>.a,.c{fill:none;}.b{clip-path:url(#a);}.c{stroke:#edf5e0;stroke-linejoin:round;stroke-width:4px;}</style><clipPath id="a"><rect class="a" width="132" height="132"/></clipPath></defs><g class="b"><g transform="translate(15.913 57.652)"><path class="c" d="M106.174,46.043V71.087a5.564,5.564,0,0,1-5.565,5.565H11.565A5.564,5.564,0,0,1,6,71.087V21" transform="translate(-6 -21)"/><line class="c" x2="50.087" transform="translate(25.043 72.348)"/><line class="c" y2="13.913" transform="translate(33.391 58.435)"/><line class="c" y2="16.696" transform="translate(66.783 55.652)"/><line class="c" x1="100.174" transform="translate(0 38.957)"/></g><path class="c" d="M91.348,1H24.565A5.564,5.564,0,0,0,19,6.565V67.783a5.564,5.564,0,0,0,5.565,5.565H44.043v11.13l11.13-11.13H91.348a5.564,5.564,0,0,0,5.565-5.565V6.565A5.564,5.564,0,0,0,91.348,1Z" transform="translate(33.087 1)"/><line class="c" x2="77.913" transform="translate(52.087 18.696)"/><rect class="c" width="25.043" height="33.391" transform="translate(63.217 29.826)"/><line class="c" x2="19.478" transform="translate(102.174 29.826)"/><line class="c" x2="25.043" transform="translate(96.609 40.957)"/><line class="c" x2="25.043" transform="translate(96.609 52.087)"/><line class="c" x2="25.043" transform="translate(96.609 63.217)"/><path class="c" d="M42.739,6H6.565A5.564,5.564,0,0,0,1,11.565V33.826a5.564,5.564,0,0,0,5.565,5.565h16.7l11.13,11.13V39.391h8.348" transform="translate(1 9.913)"/><line class="c" x2="27.826" transform="translate(15.913 27.043)"/><line class="c" x2="33.391" transform="translate(10.348 38.174)"/></g></svg>