<svg xmlns="http://www.w3.org/2000/svg" xmlns:xlink="http://www.w3.org/1999/xlink" width="132" height="132" viewBox="0 0 132 132"><defs><style>.a,.d{fill:none;}.b{clip-path:url(#a);}.c{fill:#fff;}.d{stroke:#fffdfd;stroke-linejoin:round;stroke-width:4px;}</style><clipPath id="a"><rect class="a" width="132" height="132"/></clipPath></defs><g class="b"><g transform="translate(65.743 24.309)"><path class="c" d="M49,22.073V20.559H36.784c.142-2.538.159-4.959.462-7.341a3.415,3.415,0,0,1,2.632-2.76,37.891,37.891,0,0,1,6-1.238,28.63,28.63,0,0,1,9.984.537c3.5.868,5.287,3.27,5.29,6.873,0,3.428.008,6.854,0,10.282-.014,4.2-2.488,6.65-6.7,6.65-3.731,0-7.463-.008-11.194.006a7.7,7.7,0,0,0-7.894,7.841c-.014,1.706,0,3.409,0,5.095a33.164,33.164,0,0,1-5.654-.058c-2.808-.5-4.063-2.769-4.794-5.281a23.468,23.468,0,0,1-.142-13.059c1.1-3.946,3.715-6.019,7.78-6.03,5.028-.011,10.056,0,15.082,0Zm-9.077-6.945A2.254,2.254,0,0,0,42.263,17.4a2.32,2.32,0,0,0-.1-4.639A2.264,2.264,0,0,0,39.928,15.127Z" transform="translate(-23.908 -9.017)"/><path class="c" d="M54.37,13.746c1.931,0,3.684-.1,5.423.025a4.548,4.548,0,0,1,4,2.994,36.188,36.188,0,0,1,1.825,6.317,19.05,19.05,0,0,1-1.539,11.464,5.7,5.7,0,0,1-5.866,3.784c-5.365-.111-10.735-.031-16.1-.031H40.8v1.569H52.687c0,2.04.147,3.943-.045,5.81a4.829,4.829,0,0,1-3.011,3.776,19.374,19.374,0,0,1-17.784.006,5.593,5.593,0,0,1-3.275-5.551c.089-3.5.017-7.007.025-10.507.008-4.088,2.546-6.631,6.609-6.634,3.768,0,7.538.008,11.306,0a7.756,7.756,0,0,0,7.853-7.68C54.409,17.344,54.37,15.6,54.37,13.746ZM47.586,47.583a2.359,2.359,0,0,0,2.262-2.39,2.326,2.326,0,0,0-2.307-2.215A2.261,2.261,0,0,0,45.249,45.3,2.3,2.3,0,0,0,47.586,47.583Z" transform="translate(-15.597 -0.657)"/></g><g transform="translate(2 2)"><g transform="translate(0 33.391)"><path class="d" d="M42.739,13H6.565A5.564,5.564,0,0,0,1,18.565V85.348a5.564,5.564,0,0,0,5.565,5.565H95.609a5.564,5.564,0,0,0,5.565-5.565V82.565" transform="translate(-1 -13)"/><line class="d" x2="50.087" transform="translate(25.043 94.609)"/><line class="d" y2="13.913" transform="translate(33.391 80.696)"/><line class="d" y2="16.696" transform="translate(66.783 77.913)"/><line class="d" x2="41.739" transform="translate(0 61.217)"/></g><path class="d" d="M24.565,95.609H91.348a5.564,5.564,0,0,0,5.565-5.565V17.7L80.217,1H24.565A5.564,5.564,0,0,0,19,6.565V90.043A5.564,5.564,0,0,0,24.565,95.609Z" transform="translate(31.087 -1)"/><path class="d" d="M41,1V17.7H57.7" transform="translate(70.304 -1)"/><path class="d" d="M16.13,17H10.565A5.564,5.564,0,0,0,5,22.565V28.13" transform="translate(6.13 27.522)"/><line class="d" y2="5.565" transform="translate(11.13 61.217)"/></g></g></svg>